<?xml version="1.0" encoding="UTF-8" standalone="no"?>
<!-- Created with Inkscape (http://www.inkscape.org/) -->

<svg
   xmlns:svg="http://www.w3.org/2000/svg"
   xmlns="http://www.w3.org/2000/svg"
   xmlns:xlink="http://www.w3.org/1999/xlink"
   version="1.0"
   width="230.99988"
   height="220"
   id="svg2">
  <defs
     id="defs4">
    <path
       d="M 0,-76.45 C 4,-76.5 5.5,-79 5.5,-82 5.5,-86 0,-105.05 0,-105.05 c 0,0 -5.5,19.05 -5.5,23.05 0,3 1.5,5.55 5.5,5.55 l 0,0 z"
       id="be" />
  </defs>
  <use
     transform="matrix(1.1491179,0,0,1.1491179,-17.223106,-18.241788)"
     id="use3632"
     x="0"
     y="0"
     width="210"
     height="200"
     xlink:href="#path3461" />
  <path
     d="M 182.15921,213.34911 115.58829,164.82104 49.127395,213.5 74.661549,135.12645 7.8749341,86.896268 90.226832,86.98684 115.41134,8.5000008 l 25.36211,78.4295142 82.35149,-0.277369 -66.67724,48.381584 25.71151,78.31543 z"
     id="path2991"
     style="fill:#fec50c;fill-opacity:1;fill-rule:nonzero;stroke:none" />
  <path
     d="M 177.75356,207.18487 115.58244,161.86414 53.514105,207.3258 77.360644,134.13212 14.98811,89.089595 l 76.909082,0.08448 23.519988,-73.299474 23.68588,73.245929 76.9087,-0.259033 -62.2704,45.183933 24.0122,73.13938 z"
     id="path3461"
     style="fill:#d40000;fill-opacity:1;fill-rule:nonzero;stroke:none" />
  <path
     d="m 115.58824,161.86073 -0.25228,-40.65792 62.41142,85.97853 -62.15914,-45.32061 z"
     id="path3493"
     style="fill:#9b1111;fill-opacity:1;fill-rule:evenodd;stroke:none" />
  <path
     d="M 77.366617,134.13598 115.41401,121.68358 14.997767,89.097884 77.366617,134.13598 z"
     id="path3487"
     style="fill:#800000;fill-opacity:1;fill-rule:evenodd;stroke:none" />
  <path
     d="m 139.10253,89.120389 -23.68852,32.563191 0,-105.812485 23.68852,73.249294 z"
     id="path3485"
     style="fill:#800000;fill-opacity:1;fill-rule:evenodd;stroke:none" />
  <path
     d="m 153.73925,134.04558 -38.32524,-12.362 100.58161,-32.811818 -62.25637,45.173818 z"
     id="path3489"
     style="fill:#550000;fill-opacity:1;fill-rule:evenodd;stroke:none" />
  <path
     d="m 153.74161,134.02734 -38.3276,-12.34376 62.34632,85.51547 -24.01872,-73.17171 z"
     id="path3495"
     style="fill:#711717;fill-opacity:1;fill-rule:evenodd;stroke:none" />
  <path
     d="m 115.58526,161.86041 -0.17125,-40.17683 -61.886733,85.63335 62.057983,-45.45652 z"
     id="path3491"
     style="fill:#550000;fill-opacity:1;fill-rule:evenodd;stroke:none" />
  <use
     transform="matrix(0.35937094,0.07155652,-0.0714833,0.35973904,115.41688,121.68358)"
     id="use3938"
     style="fill:#fec50c;fill-opacity:1"
     x="0"
     y="0"
     width="1000"
     height="500"
     xlink:href="#be" />
  <use
     transform="matrix(0.3385199,0.14036324,-0.14021961,0.33886665,115.41688,121.68358)"
     id="use3940"
     style="fill:#fec50c;fill-opacity:1"
     x="0"
     y="0"
     width="1000"
     height="500"
     xlink:href="#be" />
  <use
     transform="matrix(0.30465996,0.2037757,-0.20356719,0.30497202,115.41688,121.68358)"
     id="use3942"
     style="fill:#fec50c;fill-opacity:1"
     x="0"
     y="0"
     width="1000"
     height="500"
     xlink:href="#be" />
  <use
     transform="matrix(0.25909189,0.25935728,-0.25909189,0.25935728,115.41688,121.68358)"
     id="use3944"
     style="fill:#fec50c;fill-opacity:1"
     x="0"
     y="0"
     width="1000"
     height="500"
     xlink:href="#be" />
  <use
     transform="matrix(0.20356719,0.30497202,-0.30465996,0.2037757,115.41688,121.68358)"
     id="use3946"
     style="fill:#fec50c;fill-opacity:1"
     x="0"
     y="0"
     width="1000"
     height="500"
     xlink:href="#be" />
  <use
     transform="matrix(0.14021961,0.33886665,-0.3385199,0.14036324,115.41688,121.68358)"
     id="use3948"
     style="fill:#fec50c;fill-opacity:1"
     x="0"
     y="0"
     width="1000"
     height="500"
     xlink:href="#be" />
  <use
     transform="matrix(0.0714833,0.35973904,-0.35937094,0.07155652,115.41688,121.68358)"
     id="use3950"
     style="fill:#fec50c;fill-opacity:1"
     x="0"
     y="0"
     width="1000"
     height="500"
     xlink:href="#be" />
  <use
     transform="matrix(0,0.36678668,-0.36641136,0,115.41688,121.68358)"
     id="use3952"
     style="fill:#fec50c;fill-opacity:1"
     x="0"
     y="0"
     width="1000"
     height="500"
     xlink:href="#be" />
  <use
     transform="matrix(-0.0714833,0.35973904,-0.35937094,-0.07155652,115.41688,121.68358)"
     id="use3954"
     style="fill:#fec50c;fill-opacity:1"
     x="0"
     y="0"
     width="1000"
     height="500"
     xlink:href="#be" />
  <use
     transform="matrix(-0.14021961,0.33886665,-0.3385199,-0.14036324,115.41688,121.68358)"
     id="use3956"
     style="fill:#fec50c;fill-opacity:1"
     x="0"
     y="0"
     width="1000"
     height="500"
     xlink:href="#be" />
  <use
     transform="matrix(-0.20356719,0.30497202,-0.30465996,-0.2037757,115.41688,121.68358)"
     id="use3958"
     style="fill:#fec50c;fill-opacity:1"
     x="0"
     y="0"
     width="1000"
     height="500"
     xlink:href="#be" />
  <use
     transform="matrix(-0.25909189,0.25935728,-0.25909189,-0.25935728,115.41688,121.68358)"
     id="use3960"
     style="fill:#fec50c;fill-opacity:1"
     x="0"
     y="0"
     width="1000"
     height="500"
     xlink:href="#be" />
  <use
     transform="matrix(-0.30465996,0.2037757,-0.20356719,-0.30497202,115.41688,121.68358)"
     id="use3962"
     style="fill:#fec50c;fill-opacity:1"
     x="0"
     y="0"
     width="1000"
     height="500"
     xlink:href="#be" />
  <use
     transform="matrix(-0.3385199,0.14036324,-0.14021961,-0.33886665,115.41688,121.68358)"
     id="use3964"
     style="fill:#fec50c;fill-opacity:1"
     x="0"
     y="0"
     width="1000"
     height="500"
     xlink:href="#be" />
  <use
     transform="matrix(-0.30465996,-0.2037757,0.20356719,-0.30497202,115.41688,121.68358)"
     id="use3974"
     style="fill:#fec50c;fill-opacity:1"
     x="0"
     y="0"
     width="1000"
     height="500"
     xlink:href="#be" />
  <use
     transform="matrix(-0.25909189,-0.25935728,0.25909189,-0.25935728,115.41688,121.68358)"
     id="use3976"
     style="fill:#fec50c;fill-opacity:1"
     x="0"
     y="0"
     width="1000"
     height="500"
     xlink:href="#be" />
  <use
     transform="matrix(-0.20356719,-0.30497202,0.30465996,-0.2037757,115.41688,121.68358)"
     id="use3978"
     style="fill:#fec50c;fill-opacity:1"
     x="0"
     y="0"
     width="1000"
     height="500"
     xlink:href="#be" />
  <use
     transform="matrix(-0.14021961,-0.33886665,0.3385199,-0.14036324,115.41688,121.68358)"
     id="use3980"
     style="fill:#fec50c;fill-opacity:1"
     x="0"
     y="0"
     width="1000"
     height="500"
     xlink:href="#be" />
  <use
     transform="matrix(-0.0714833,-0.35973904,0.35937094,-0.07155652,115.41688,121.68358)"
     id="use3982"
     style="fill:#fec50c;fill-opacity:1"
     x="0"
     y="0"
     width="1000"
     height="500"
     xlink:href="#be" />
  <use
     transform="matrix(0,-0.36678668,0.36641136,0,115.41688,121.68358)"
     id="use3984"
     style="fill:#fec50c;fill-opacity:1"
     x="0"
     y="0"
     width="1000"
     height="500"
     xlink:href="#be" />
  <use
     transform="matrix(0.0714833,-0.35973904,0.35937094,0.07155652,115.41688,121.68358)"
     id="use3986"
     style="fill:#fec50c;fill-opacity:1"
     x="0"
     y="0"
     width="1000"
     height="500"
     xlink:href="#be" />
  <use
     transform="matrix(0.14021961,-0.33886665,0.3385199,0.14036324,115.41688,121.68358)"
     id="use3988"
     style="fill:#fec50c;fill-opacity:1"
     x="0"
     y="0"
     width="1000"
     height="500"
     xlink:href="#be" />
  <use
     transform="matrix(0.20356719,-0.30497202,0.30465996,0.2037757,115.41688,121.68358)"
     id="use3990"
     style="fill:#fec50c;fill-opacity:1"
     x="0"
     y="0"
     width="1000"
     height="500"
     xlink:href="#be" />
  <use
     transform="matrix(0.25909189,-0.25935728,0.25909189,0.25935728,115.41688,121.68358)"
     id="use3992"
     style="fill:#fec50c;fill-opacity:1"
     x="0"
     y="0"
     width="1000"
     height="500"
     xlink:href="#be" />
  <circle
     cx="0"
     cy="0"
     r="68.699997"
     transform="matrix(0.35898111,0,0,0.35934881,115.38552,121.71495)"
     id="circle3934"
     style="fill:#fec50c;fill-opacity:1" />
  <use
     transform="matrix(0.36641136,0,0,0.36678668,115.41688,121.68358)"
     id="use3936"
     style="fill:#fec50c;fill-opacity:1"
     x="0"
     y="0"
     width="1000"
     height="500"
     xlink:href="#be" />
  <use
     transform="matrix(-0.35937094,0.07155652,-0.0714833,-0.35973904,115.41688,121.68358)"
     id="use3966"
     style="fill:#fec50c;fill-opacity:1"
     x="0"
     y="0"
     width="1000"
     height="500"
     xlink:href="#be" />
  <use
     transform="matrix(-0.36641136,0,0,-0.36678668,115.41688,121.68358)"
     id="use3968"
     style="fill:#fec50c;fill-opacity:1"
     x="0"
     y="0"
     width="1000"
     height="500"
     xlink:href="#be" />
  <use
     transform="matrix(-0.35937094,-0.07155652,0.0714833,-0.35973904,115.41688,121.68358)"
     id="use3970"
     style="fill:#fec50c;fill-opacity:1"
     x="0"
     y="0"
     width="1000"
     height="500"
     xlink:href="#be" />
  <use
     transform="matrix(-0.3385199,-0.14036324,0.14021961,-0.33886665,115.41688,121.68358)"
     id="use3972"
     style="fill:#fec50c;fill-opacity:1"
     x="0"
     y="0"
     width="1000"
     height="500"
     xlink:href="#be" />
  <use
     transform="matrix(0.30465996,-0.2037757,0.20356719,0.30497202,115.41688,121.68358)"
     id="use3994"
     style="fill:#fec50c;fill-opacity:1"
     x="0"
     y="0"
     width="1000"
     height="500"
     xlink:href="#be" />
  <use
     transform="matrix(0.3385199,-0.14036324,0.14021961,0.33886665,115.41688,121.68358)"
     id="use3996"
     style="fill:#fec50c;fill-opacity:1"
     x="0"
     y="0"
     width="1000"
     height="500"
     xlink:href="#be" />
  <use
     transform="matrix(0.35937094,-0.07155652,0.0714833,0.35973904,115.41688,121.68358)"
     id="use3998"
     style="fill:#fec50c;fill-opacity:1"
     x="0"
     y="0"
     width="1000"
     height="500"
     xlink:href="#be" />
  <path
     d="m 140.0808,179.25419 c -1.34616,-0.25327 -1.17399,0.81359 -1.17399,0.81359 0.10395,1.35177 -0.87622,2.77644 -1.97907,3.06621 -0.86403,0.22703 -0.43746,0.86435 -0.73007,1.45365 l -3.61222,-0.18078 c -5.74741,3.13659 -12.94573,4.21572 -21.58292,3.2543 0,0 -1.80609,1.37857 -3.43158,2.80234 -1.62551,1.42375 -2.73175,1.74015 -3.0704,2.89272 -0.33863,1.15257 0.8579,1.76275 2.34792,1.80795 1.49006,0.0452 3.43161,-1.35597 3.43161,-1.35597 0,0 0.24834,1.15257 1.62551,1.26557 1.37714,0.11305 3.88313,-0.81357 3.88313,-0.81357 0,0 2.09955,0.94473 3.70249,0.74133 1.60292,-0.20339 2.96191,-1.21754 2.96191,-1.21754 0,0 0.42453,1.85477 2.00486,1.92257 1.58037,0.0677 4.06371,-1.98875 4.06371,-1.98875 0,0 1.15142,1.35596 2.61889,1.17516 1.46745,-0.18079 3.25099,-1.89834 3.25099,-1.89834 0,0 1.8061,0.76839 3.52189,0.27119 1.71579,-0.49719 3.34126,-2.25994 3.34126,-2.25994 0,0 1.51263,1.26557 2.88979,0.81357 1.37717,-0.45198 2.28181,-2.36848 2.28181,-2.36848 0,0 3.68155,1.45683 6.11656,0.28935 1.72449,-0.82682 1.26427,-3.52552 1.26427,-3.52552 0,0 10.11511,1.47109 9.66266,-5.15266 -0.0467,-0.68415 -16.2276,-0.4606 -23.38901,-1.80795 z"
     id="path3928"
     style="fill:#fec50c;fill-opacity:1;fill-rule:evenodd;stroke:#d40000;stroke-width:0.55500078px;stroke-linecap:butt;stroke-linejoin:miter;stroke-opacity:1" />
  <path
     d="m 115.05129,168.14594 c -37.245525,0.12769 -63.417343,-29.73883 -65.781559,-59.63021 0,0 -1.465313,-0.55834 -1.655637,0.76262 -0.455475,3.16116 0.850786,12.8722 0.364422,12.21247 -0.90316,-1.22512 -7.707593,-19.45054 -8.938955,-17.48217 -1.659809,2.65322 7.605623,23.39482 7.084883,24.01086 C 44.24831,130.239 33.620188,107.7692 32.765729,109.4272 c -3.244052,6.29491 13.144622,26.69922 13.027799,27.5572 -0.369885,2.71632 -12.464595,-10.9769 -13.474955,-9.51157 -2.27689,3.30222 13.040486,15.36177 13.839113,16.28897 2.366379,2.74735 -8.390021,-4.86865 -8.723767,-2.23677 -0.27285,2.15167 5.214962,6.48614 8.48811,8.36365 3.273162,1.8775 4.331645,1.29802 5.268021,2.90431 0.707248,1.21324 -6.150437,-0.77715 -5.959405,0.74585 0.374558,2.9859 7.532039,2.3488 8.608053,3.6952 1.07601,1.34638 -4.872313,0.31803 -4.635215,1.42513 0.417979,1.9515 6.476513,2.23831 6.572021,3.06569 0.100357,0.86941 -3.817061,0.26623 -3.569285,1.86264 0.212345,1.36807 6.155762,1.07858 7.608372,2.04798 1.45261,0.96939 -5.321385,0.12874 -0.04896,2.76771 5.272445,2.63893 11.300066,5.58005 19.556164,7.19564 8.256134,1.6156 12.457002,-0.19558 12.760785,-0.73325 0.303766,-0.53768 -3.909171,0.43441 -9.764162,-0.63047 -5.854991,-1.06489 -13.682977,-4.77568 -16.87949,-6.63584 -1.001583,-0.58285 3.112072,-1.76887 2.251263,-2.89984 -0.860798,-1.13096 -4.17577,0.15715 -5.458649,-1.46662 -0.826263,-1.04587 1.566022,-1.0668 1.506418,-1.72337 -0.05654,-0.62283 -4.57303,-1.66952 -5.380031,-2.80048 -0.807004,-1.13097 2.045127,-0.95061 2.152008,-1.72337 0.0758,-0.54799 -2.834933,-1.51631 -3.050136,-2.27028 -0.215202,-0.75398 3.264425,-0.53953 1.639032,-1.45388 -1.738091,-0.97775 -6.44768,-2.18864 -7.333519,-3.87363 -0.873317,-1.66117 3.591096,0.23887 2.425181,-1.35453 -0.782195,-1.06895 -5.119371,-2.92927 -6.025639,-5.43961 -0.61873,-1.71386 3.054312,-0.21819 3.10812,-1.29648 0.08515,-1.7066 -2.181202,-0.61412 -2.892919,-5.53501 -0.232411,-1.60696 2.876235,-0.53417 2.876235,-0.53417 l 0.430405,-0.86168 c 0,0 3.658425,2.04649 8.39285,7.53975 4.734423,5.49326 6.078237,10.6926 10.544845,14.43325 2.1276,1.78182 2.164318,-0.72099 7.006334,2.29491 4.842033,3.0159 6.850312,5.12334 11.890063,9.45391 0.705791,0.60646 3.99952,-0.59891 13.740741,1.4173 5.22628,1.08172 6.31428,3.85219 6.31428,3.85219 0.025,0.10017 2.91587,-1.77998 4.30401,-3.87759 0.54993,-0.83101 1.09206,-0.0388 1.25608,-0.1816 0.56559,-0.4923 -0.0846,-1.1525 -0.0846,-1.1525 z"
     id="path3926"
     style="fill:#fec50c;fill-opacity:1;fill-rule:evenodd;stroke:#d40000;stroke-width:0.55500078px;stroke-linecap:butt;stroke-linejoin:miter;stroke-opacity:1" />
  <path
     d="m 118.60948,172.25589 c 0,0 2.89612,-1.11786 8.12242,-2.19958 9.74122,-2.01621 13.11357,-1.36171 13.81932,-1.96817 7.7293,-8.582 13.38955,-9.27401 19.00015,-11.48922 4.46659,-3.74065 5.91415,-9.09576 10.64859,-14.589 4.73445,-5.49326 7.5111,-5.93025 7.5111,-5.93025 l 0.63789,1.22512 c 0,0 2.5381,-1.91515 2.40943,-0.29654 -0.19305,2.42873 -2.20004,4.76295 -2.11488,6.46956 0.0537,1.0783 3.46751,-0.4693 3.15997,0.5177 -0.79397,2.54815 -3.53185,4.11104 -4.31407,5.18001 -1.16589,1.59338 3.11053,-0.55969 2.23724,1.10149 -0.88584,1.68499 -5.20542,3.36479 -6.88624,4.43817 -1.03556,0.66133 1.12811,0.80375 0.91294,1.55772 -0.21523,0.75398 -4.68195,2.39724 -4.60617,2.94523 0.10694,0.77276 1.20817,0.84602 0.67372,1.43136 -0.9367,1.02586 -4.62317,1.17166 -4.67975,1.79451 -0.0596,0.65655 0.77668,1.30054 -0.0495,2.34641 -1.2829,1.6238 -2.29926,-0.002 -2.83224,1.31572 -0.30821,0.76221 2.11503,2.29276 0.47866,2.59142 -2.25281,0.41118 -3.92538,1.36001 -5.84581,2.57598 -0.72272,0.45763 -3.99918,1.07044 -5.89752,1.55866 -1.25367,0.32244 -8.15218,1.18393 -7.8651,1.73072 0.28396,0.5408 4.65214,0.4793 13.83373,-1.11071 3.98944,-0.69086 6.28332,-1.1864 12.49531,-3.15197 7.10145,-2.24704 -1.82032,-2.40468 -0.36773,-3.37407 1.45259,-0.96939 7.64161,-0.49553 7.85394,-1.8636 0.2478,-1.59642 -3.42402,-1.11615 -3.32367,-1.98556 0.0955,-0.82738 7.5048,-0.80688 7.92277,-2.75838 0.2371,-1.1071 -4.23765,-0.32461 -3.16166,-1.67099 1.07604,-1.34638 7.00555,-1.63121 7.19591,-4.18688 0.11399,-1.5307 -4.82875,0.31475 -4.17885,-0.93024 0.26099,-0.49998 2.25495,-1.04535 4.23873,-2.43116 3.09364,-2.16112 8.02417,-5.90468 7.75134,-8.05634 -0.33377,-2.63187 -10.23983,6.1287 -9.38527,2.77601 0.30238,-1.18626 16.16333,-13.75302 13.5605,-16.80444 -1.76626,-2.07067 -13.0674,11.44282 -13.43727,8.7265 -0.11681,-0.85797 17.63242,-20.95963 14.38835,-27.25454 -0.85442,-1.658 -14.20378,23.98983 -16.0799,21.77032 -0.52072,-0.61603 11.39406,-25.3003 9.50376,-27.79422 -0.91805,-1.21117 -2.77581,2.89093 -4.81932,7.44896 -2.0435,4.55803 -4.27277,9.57199 -4.72438,10.18455 -0.48633,0.65973 0.51757,-9.65664 0.062,-12.8178 -0.19032,-1.32096 -1.65562,-0.76262 -1.65562,-0.76262 -2.06188,32.16139 -32.95258,56.04524 -57.55425,59.56874 -6.39889,0.91649 -8.43865,3.92346 -15.41032,7.86889 -2.35719,1.33402 -5.97163,1.96441 -9.099461,3.70988 -3.1279,1.74547 -5.354264,4.39835 -6.387677,6.03912 -0.501467,0.79618 0.214403,3.12708 0.874421,3.40365 0.660017,0.27658 0.613962,-1.73626 1.350762,-2.08967 0.736783,-0.35341 0.736783,0.72216 1.596334,0.67607 0.859586,-0.046 1.84194,-0.86045 1.84194,-0.86045 0,0 17.363631,-0.0328 24.792191,-0.24585 1.3315,-0.0385 3.55931,-0.57482 4.50572,-1.58645 -0.28722,-0.82081 -2.2956,-0.36417 -3.56127,-0.30519 -5.24305,-0.37242 -12.11701,-0.0406 -17.01907,-0.34209 0,0 -0.80833,-0.0525 -0.7358,-0.83932 0.0321,-0.34815 3.13129,-3.68765 3.13129,-3.68765 l -2.45594,0 c 0,0 -1.47355,0.84509 -2.21033,0.92191 -0.73677,0.0769 -1.02364,-0.39654 -0.73677,-0.61461 3.74884,-2.84958 14.88539,-7.87682 14.88539,-7.87682 z"
     id="path3930"
     style="fill:#fec50c;fill-opacity:1;fill-rule:evenodd;stroke:#d40000;stroke-width:0.55500078px;stroke-linecap:butt;stroke-linejoin:miter;stroke-opacity:1" />
  <path
     d="m 101.39099,182.77553 c -0.0307,-0.38412 -0.83675,-0.15397 -1.450693,-0.0159 -0.61398,0.13828 -0.974531,0.43057 -0.943857,0.8147 0.03066,0.38413 0.805373,0.19256 1.41935,0.0543 0.61397,-0.13827 1.00586,-0.46914 0.9752,-0.85327 z"
     id="path3932"
     style="fill:#d40000;fill-opacity:1;fill-rule:evenodd;stroke:#d40000;stroke-width:0.55500078px;stroke-linecap:butt;stroke-linejoin:miter;stroke-opacity:1" />
</svg>
