<?xml version="1.0" encoding="UTF-8" standalone="no"?>
<!-- Created with Inkscape (http://www.inkscape.org/) -->

<svg
   xmlns:dc="http://purl.org/dc/elements/1.1/"
   xmlns:cc="http://creativecommons.org/ns#"
   xmlns:rdf="http://www.w3.org/1999/02/22-rdf-syntax-ns#"
   xmlns:svg="http://www.w3.org/2000/svg"
   xmlns="http://www.w3.org/2000/svg"
   xmlns:xlink="http://www.w3.org/1999/xlink"
   version="1.1"
   width="336"
   height="350"
   viewBox="0 0 94.826668 98.777779"
   id="svg2"
   xml:space="preserve"
   style="fill-rule:evenodd"><metadata
   id="metadata82"><rdf:RDF><cc:Work
       rdf:about=""><dc:format>image/svg+xml</dc:format><dc:type
         rdf:resource="http://purl.org/dc/dcmitype/StillImage" /><dc:title></dc:title></cc:Work></rdf:RDF></metadata>
 <defs
   id="defs4"><linearGradient
     id="linearGradient3441"><stop
       id="stop3443"
       style="stop-color:#2b0000;stop-opacity:1"
       offset="0" /><stop
       id="stop3445"
       style="stop-color:#ff0000;stop-opacity:1"
       offset="1" /></linearGradient><linearGradient
     id="linearGradient3435"><stop
       id="stop3437"
       style="stop-color:#ff0000;stop-opacity:1"
       offset="0" /><stop
       id="stop3439"
       style="stop-color:#2b0000;stop-opacity:1"
       offset="1" /></linearGradient><linearGradient
     id="linearGradient3429"><stop
       id="stop3431"
       style="stop-color:#ff0000;stop-opacity:1"
       offset="0" /><stop
       id="stop3433"
       style="stop-color:#2b0000;stop-opacity:1"
       offset="1" /></linearGradient><linearGradient
     id="linearGradient3423"><stop
       id="stop3425"
       style="stop-color:#2b0000;stop-opacity:1"
       offset="0" /><stop
       id="stop3427"
       style="stop-color:#ff0000;stop-opacity:1"
       offset="1" /></linearGradient><linearGradient
     id="linearGradient3417"><stop
       id="stop3419"
       style="stop-color:#2b0000;stop-opacity:1"
       offset="0" /><stop
       id="stop3421"
       style="stop-color:#ff0000;stop-opacity:1"
       offset="1" /></linearGradient><linearGradient
     id="linearGradient3411"><stop
       id="stop3413"
       style="stop-color:#ff0000;stop-opacity:1"
       offset="0" /><stop
       id="stop3415"
       style="stop-color:#2b0000;stop-opacity:1"
       offset="1" /></linearGradient><linearGradient
     id="linearGradient3405"><stop
       id="stop3407"
       style="stop-color:#2b0000;stop-opacity:1"
       offset="0" /><stop
       id="stop3409"
       style="stop-color:#ff0000;stop-opacity:1"
       offset="1" /></linearGradient><linearGradient
     id="linearGradient3399"><stop
       id="stop3401"
       style="stop-color:#ff0000;stop-opacity:1"
       offset="0" /><stop
       id="stop3403"
       style="stop-color:#2b0000;stop-opacity:1"
       offset="1" /></linearGradient><linearGradient
     id="linearGradient3393"><stop
       id="stop3395"
       style="stop-color:#2b0000;stop-opacity:1"
       offset="0" /><stop
       id="stop3397"
       style="stop-color:#ff0000;stop-opacity:1"
       offset="1" /></linearGradient><linearGradient
     id="linearGradient3189"><stop
       id="stop3191"
       style="stop-color:#ff0000;stop-opacity:1"
       offset="0" /><stop
       id="stop3193"
       style="stop-color:#550000;stop-opacity:1"
       offset="1" /></linearGradient><linearGradient
     id="linearGradient3183"><stop
       id="stop3185"
       style="stop-color:#550000;stop-opacity:1"
       offset="0" /><stop
       id="stop3187"
       style="stop-color:#ff0000;stop-opacity:1"
       offset="1" /></linearGradient><linearGradient
     id="linearGradient3177"><stop
       id="stop3179"
       style="stop-color:#ff0000;stop-opacity:1"
       offset="0" /><stop
       id="stop3181"
       style="stop-color:#550000;stop-opacity:1"
       offset="1" /></linearGradient><linearGradient
     id="linearGradient3171"><stop
       id="stop3173"
       style="stop-color:#550000;stop-opacity:1"
       offset="0" /><stop
       id="stop3175"
       style="stop-color:#ff0000;stop-opacity:1"
       offset="1" /></linearGradient><linearGradient
     id="linearGradient3165"><stop
       id="stop3167"
       style="stop-color:#550000;stop-opacity:1"
       offset="0" /><stop
       id="stop3169"
       style="stop-color:#ff0000;stop-opacity:1"
       offset="1" /></linearGradient><linearGradient
     id="linearGradient3159"><stop
       id="stop3161"
       style="stop-color:#ff0000;stop-opacity:1"
       offset="0" /><stop
       id="stop3163"
       style="stop-color:#550000;stop-opacity:1"
       offset="1" /></linearGradient><linearGradient
     id="linearGradient3153"><stop
       id="stop3155"
       style="stop-color:#ff0000;stop-opacity:1"
       offset="0" /><stop
       id="stop3157"
       style="stop-color:#550000;stop-opacity:1"
       offset="1" /></linearGradient><linearGradient
     id="linearGradient3147"><stop
       id="stop3149"
       style="stop-color:#550000;stop-opacity:1"
       offset="0" /><stop
       id="stop3151"
       style="stop-color:#ff0000;stop-opacity:1"
       offset="1" /></linearGradient><linearGradient
     id="linearGradient3141"><stop
       id="stop3143"
       style="stop-color:#ff0000;stop-opacity:1"
       offset="0" /><stop
       id="stop3145"
       style="stop-color:#550000;stop-opacity:1"
       offset="1" /></linearGradient><linearGradient
     id="linearGradient3135"><stop
       id="stop3137"
       style="stop-color:#550000;stop-opacity:1"
       offset="0" /><stop
       id="stop3139"
       style="stop-color:#ff0000;stop-opacity:1"
       offset="1" /></linearGradient><linearGradient
     id="linearGradient4222"><stop
       id="stop4224"
       style="stop-color:#ff0000;stop-opacity:1"
       offset="0" /><stop
       id="stop4226"
       style="stop-color:#800000;stop-opacity:1"
       offset="1" /></linearGradient><linearGradient
     id="linearGradient4216"><stop
       id="stop4218"
       style="stop-color:#800000;stop-opacity:1"
       offset="0" /><stop
       id="stop4220"
       style="stop-color:#ff0000;stop-opacity:1"
       offset="1" /></linearGradient><linearGradient
     id="linearGradient4210"><stop
       id="stop4212"
       style="stop-color:#800000;stop-opacity:1"
       offset="0" /><stop
       id="stop4214"
       style="stop-color:#ff0000;stop-opacity:1"
       offset="1" /></linearGradient><linearGradient
     id="linearGradient4204"><stop
       id="stop4206"
       style="stop-color:#ff0000;stop-opacity:1"
       offset="0" /><stop
       id="stop4208"
       style="stop-color:#800000;stop-opacity:1"
       offset="1" /></linearGradient><linearGradient
     id="linearGradient4198"><stop
       id="stop4200"
       style="stop-color:#800000;stop-opacity:1"
       offset="0" /><stop
       id="stop4202"
       style="stop-color:#ff0000;stop-opacity:1"
       offset="1" /></linearGradient><linearGradient
     id="linearGradient4192"><stop
       id="stop4194"
       style="stop-color:#800000;stop-opacity:1"
       offset="0" /><stop
       id="stop4196"
       style="stop-color:#ff0000;stop-opacity:1"
       offset="1" /></linearGradient><style
     type="text/css"
     id="style6" /><style
     type="text/css"
     id="style6-4" /><linearGradient
     id="linearGradient4015"><stop
       id="stop4017"
       style="stop-color:#800000;stop-opacity:1"
       offset="0" /><stop
       id="stop4019"
       style="stop-color:#ff0000;stop-opacity:1"
       offset="1" /></linearGradient><linearGradient
     id="linearGradient4021"><stop
       id="stop4023"
       style="stop-color:#ff0000;stop-opacity:1"
       offset="0" /><stop
       id="stop4025"
       style="stop-color:#800000;stop-opacity:1"
       offset="1" /></linearGradient><linearGradient
     id="linearGradient4027"><stop
       id="stop4029"
       style="stop-color:#ff0000;stop-opacity:1"
       offset="0" /><stop
       id="stop4031"
       style="stop-color:#800000;stop-opacity:1"
       offset="1" /></linearGradient><linearGradient
     id="linearGradient4045"><stop
       id="stop4047"
       style="stop-color:#ff0000;stop-opacity:1"
       offset="0" /><stop
       id="stop4049"
       style="stop-color:#800000;stop-opacity:1"
       offset="1" /></linearGradient><linearGradient
     x1="-76.43103"
     y1="27.596495"
     x2="-66.14386"
     y2="25.921989"
     id="linearGradient4069"
     xlink:href="#linearGradient3399"
     gradientUnits="userSpaceOnUse" /><linearGradient
     x1="-87.516357"
     y1="25.921848"
     x2="-77.281731"
     y2="27.301964"
     id="linearGradient4071"
     xlink:href="#linearGradient3393"
     gradientUnits="userSpaceOnUse" /><linearGradient
     x1="-76.43103"
     y1="27.596495"
     x2="-66.14386"
     y2="25.921989"
     id="linearGradient4073"
     xlink:href="#linearGradient3153"
     gradientUnits="userSpaceOnUse" /><linearGradient
     x1="-87.516357"
     y1="25.921848"
     x2="-77.281731"
     y2="27.301964"
     id="linearGradient4075"
     xlink:href="#linearGradient3405"
     gradientUnits="userSpaceOnUse" /><linearGradient
     x1="-76.43103"
     y1="27.596495"
     x2="-66.14386"
     y2="25.921989"
     id="linearGradient4077"
     xlink:href="#linearGradient3411"
     gradientUnits="userSpaceOnUse" /><linearGradient
     x1="-87.516357"
     y1="25.921848"
     x2="-77.281731"
     y2="27.301964"
     id="linearGradient4079"
     xlink:href="#linearGradient3417"
     gradientUnits="userSpaceOnUse" /><linearGradient
     x1="-76.43103"
     y1="27.596495"
     x2="-66.14386"
     y2="25.921989"
     id="linearGradient4081"
     xlink:href="#linearGradient3435"
     gradientUnits="userSpaceOnUse" /><linearGradient
     x1="-87.516357"
     y1="25.921848"
     x2="-77.281731"
     y2="27.301964"
     id="linearGradient4083"
     xlink:href="#linearGradient3441"
     gradientUnits="userSpaceOnUse" /><linearGradient
     x1="-76.43103"
     y1="27.596495"
     x2="-66.14386"
     y2="25.921989"
     id="linearGradient4085"
     xlink:href="#linearGradient3429"
     gradientUnits="userSpaceOnUse" /><linearGradient
     x1="-87.516357"
     y1="25.921848"
     x2="-77.281731"
     y2="27.301964"
     id="linearGradient4087"
     xlink:href="#linearGradient3423"
     gradientUnits="userSpaceOnUse" /><style
     type="text/css"
     id="style6-1" /><style
     type="text/css"
     id="style3010" /><linearGradient
     x1="-76.43103"
     y1="27.596495"
     x2="-66.14386"
     y2="25.921989"
     id="linearGradient6630"
     xlink:href="#linearGradient4021"
     gradientUnits="userSpaceOnUse" /><linearGradient
     x1="-87.516357"
     y1="25.921848"
     x2="-77.281731"
     y2="27.301964"
     id="linearGradient6632"
     xlink:href="#linearGradient4015"
     gradientUnits="userSpaceOnUse" /><linearGradient
     x1="-76.43103"
     y1="27.596495"
     x2="-66.14386"
     y2="25.921989"
     id="linearGradient6634"
     xlink:href="#linearGradient4027"
     gradientUnits="userSpaceOnUse" /><linearGradient
     x1="-87.516357"
     y1="25.921848"
     x2="-77.281731"
     y2="27.301964"
     id="linearGradient6636"
     xlink:href="#linearGradient4192"
     gradientUnits="userSpaceOnUse" /><linearGradient
     x1="-76.43103"
     y1="27.596495"
     x2="-66.14386"
     y2="25.921989"
     id="linearGradient6638"
     xlink:href="#linearGradient4045"
     gradientUnits="userSpaceOnUse" /><linearGradient
     x1="-87.516357"
     y1="25.921848"
     x2="-77.281731"
     y2="27.301964"
     id="linearGradient6640"
     xlink:href="#linearGradient4198"
     gradientUnits="userSpaceOnUse" /><linearGradient
     x1="-76.43103"
     y1="27.596495"
     x2="-66.14386"
     y2="25.921989"
     id="linearGradient6642"
     xlink:href="#linearGradient4222"
     gradientUnits="userSpaceOnUse" /><linearGradient
     x1="-87.516357"
     y1="25.921848"
     x2="-77.281731"
     y2="27.301964"
     id="linearGradient6644"
     xlink:href="#linearGradient4216"
     gradientUnits="userSpaceOnUse" /><linearGradient
     x1="-76.43103"
     y1="27.596495"
     x2="-66.14386"
     y2="25.921989"
     id="linearGradient6646"
     xlink:href="#linearGradient4204"
     gradientUnits="userSpaceOnUse" /><linearGradient
     x1="-87.516357"
     y1="25.921848"
     x2="-77.281731"
     y2="27.301964"
     id="linearGradient6648"
     xlink:href="#linearGradient4210"
     gradientUnits="userSpaceOnUse" /><linearGradient
     x1="-76.43103"
     y1="27.596495"
     x2="-66.14386"
     y2="25.921989"
     id="linearGradient6828"
     xlink:href="#linearGradient4021"
     gradientUnits="userSpaceOnUse" /><linearGradient
     x1="-87.516357"
     y1="25.921848"
     x2="-77.281731"
     y2="27.301964"
     id="linearGradient6830"
     xlink:href="#linearGradient4015"
     gradientUnits="userSpaceOnUse" /><linearGradient
     x1="-76.43103"
     y1="27.596495"
     x2="-66.14386"
     y2="25.921989"
     id="linearGradient6832"
     xlink:href="#linearGradient4027"
     gradientUnits="userSpaceOnUse" /><linearGradient
     x1="-87.516357"
     y1="25.921848"
     x2="-77.281731"
     y2="27.301964"
     id="linearGradient6834"
     xlink:href="#linearGradient4192"
     gradientUnits="userSpaceOnUse" /><linearGradient
     x1="-76.43103"
     y1="27.596495"
     x2="-66.14386"
     y2="25.921989"
     id="linearGradient6836"
     xlink:href="#linearGradient4045"
     gradientUnits="userSpaceOnUse" /><linearGradient
     x1="-87.516357"
     y1="25.921848"
     x2="-77.281731"
     y2="27.301964"
     id="linearGradient6838"
     xlink:href="#linearGradient4198"
     gradientUnits="userSpaceOnUse" /><linearGradient
     x1="-76.43103"
     y1="27.596495"
     x2="-66.14386"
     y2="25.921989"
     id="linearGradient6840"
     xlink:href="#linearGradient4222"
     gradientUnits="userSpaceOnUse" /><linearGradient
     x1="-87.516357"
     y1="25.921848"
     x2="-77.281731"
     y2="27.301964"
     id="linearGradient6842"
     xlink:href="#linearGradient4216"
     gradientUnits="userSpaceOnUse" /><linearGradient
     x1="-76.43103"
     y1="27.596495"
     x2="-66.14386"
     y2="25.921989"
     id="linearGradient6844"
     xlink:href="#linearGradient4204"
     gradientUnits="userSpaceOnUse" /><linearGradient
     x1="-87.516357"
     y1="25.921848"
     x2="-77.281731"
     y2="27.301964"
     id="linearGradient6846"
     xlink:href="#linearGradient4210"
     gradientUnits="userSpaceOnUse" /><linearGradient
     x1="-76.43103"
     y1="27.596495"
     x2="-66.14386"
     y2="25.921989"
     id="linearGradient3625"
     xlink:href="#linearGradient3399"
     gradientUnits="userSpaceOnUse" /><linearGradient
     x1="-87.516357"
     y1="25.921848"
     x2="-77.281731"
     y2="27.301964"
     id="linearGradient3627"
     xlink:href="#linearGradient3393"
     gradientUnits="userSpaceOnUse" /><linearGradient
     x1="-76.43103"
     y1="27.596495"
     x2="-66.14386"
     y2="25.921989"
     id="linearGradient3629"
     xlink:href="#linearGradient3153"
     gradientUnits="userSpaceOnUse" /><linearGradient
     x1="-87.516357"
     y1="25.921848"
     x2="-77.281731"
     y2="27.301964"
     id="linearGradient3631"
     xlink:href="#linearGradient3405"
     gradientUnits="userSpaceOnUse" /><linearGradient
     x1="-76.43103"
     y1="27.596495"
     x2="-66.14386"
     y2="25.921989"
     id="linearGradient3633"
     xlink:href="#linearGradient3411"
     gradientUnits="userSpaceOnUse" /><linearGradient
     x1="-87.516357"
     y1="25.921848"
     x2="-77.281731"
     y2="27.301964"
     id="linearGradient3635"
     xlink:href="#linearGradient3417"
     gradientUnits="userSpaceOnUse" /><linearGradient
     x1="-76.43103"
     y1="27.596495"
     x2="-66.14386"
     y2="25.921989"
     id="linearGradient3637"
     xlink:href="#linearGradient3435"
     gradientUnits="userSpaceOnUse" /><linearGradient
     x1="-87.516357"
     y1="25.921848"
     x2="-77.281731"
     y2="27.301964"
     id="linearGradient3639"
     xlink:href="#linearGradient3441"
     gradientUnits="userSpaceOnUse" /><linearGradient
     x1="-76.43103"
     y1="27.596495"
     x2="-66.14386"
     y2="25.921989"
     id="linearGradient3641"
     xlink:href="#linearGradient3429"
     gradientUnits="userSpaceOnUse" /><linearGradient
     x1="-87.516357"
     y1="25.921848"
     x2="-77.281731"
     y2="27.301964"
     id="linearGradient3643"
     xlink:href="#linearGradient3423"
     gradientUnits="userSpaceOnUse" /></defs>
 <g
   transform="matrix(0.06047619,0,0,0.06047619,17.78,45.155556)"
   id="g6253"><path
     d="m 0,20 0,100 60,0 0,-20.000001 -40,0 L 20,20 z"
     id="rect3023"
     style="fill:#9000cc;fill-opacity:1;stroke:none" /><path
     d="m 80,20 0,100 60,0 0,-20.000001 -40,0 0,-20 40,0 L 140,60 l -40,0 0,-20 40,0 0,-20 z"
     id="rect3004"
     style="fill:#9000cc;fill-opacity:1;stroke:none" /><path
     d="m 210,40.000003 0,20 20,0 c 5.52285,0 10,4.47715 10,10 0,5.52285 -4.47715,9.999995 -10,9.999995 l -20,0 0,20 20,0 c 16.56854,0 30,-13.43146 30,-29.999995 0,-16.56854 -13.43146,-30 -30,-30 z m 20,-40 c -38.65993,0 -70,31.34007 -70,70 C 160,108.65993 191.34007,140 230,140 c 38.65993,0 70,-31.34007 70,-69.999997 0,-38.65993 -31.34007,-70 -70,-70 z m 0,20 c 27.61424,0 50,22.38576 50,50 C 280,97.614236 257.61424,120 230,120 c -27.61424,0 -50,-22.385764 -50,-49.999997 0,-27.61424 22.38576,-50 50,-50 z"
     id="path3029"
     style="fill:#9000cc;fill-opacity:1;stroke:none" /><path
     d="m 320,20 0,100 20,0 0,-62.78125 40,62.78125 20,0 0,-100 -20,0 0,62.78125 L 340,20 z"
     id="rect3051"
     style="fill:#ff0000;fill-opacity:1;stroke:none" /><rect
     width="20"
     height="100"
     x="420"
     y="20"
     id="rect3002"
     style="fill:#9000cc;fill-opacity:1;stroke:none" /><path
     d="m 460,20 0,100 50,0 c 16.56854,0 30,-13.43146 30,-30 l 0,-40 C 540,33.43146 526.56854,20 510,20 z m 20,20 30,0 c 5.52285,0 10,4.47715 10,10 l 0,40 c 0,5.522847 -4.47715,10 -10,10 l -30,0 z"
     id="path3053"
     style="fill:#9000cc;fill-opacity:1;stroke:none" /><path
     d="m 660,20 -20,20 30,0 c 5.52285,0 10,4.47715 10,10 0,5.52285 -4.47715,10 -10,10 -16.56854,0 -30,13.43146 -30,30 l 0,30 60,0 0,-20 -40,0 0,-10 c 0,-5.52285 4.47715,-10 10,-10 16.56854,0 30,-13.43146 30,-30 0,-16.56853 -13.43146,-30 -30,-30 l -10,0 z"
     id="path3071"
     style="fill:#9000cc;fill-opacity:1;stroke:none" /><path
     d="m 790,3e-6 c -38.65993,0 -70,31.34007 -70,70 C 720,108.65993 751.34007,140 790,140 c 38.65993,0 70,-31.34007 70,-69.999997 0,-38.65993 -31.34007,-70 -70,-70 z m 0,20 c 27.61424,0 50,22.38576 50,50 C 840,97.614238 817.61424,120 790,120 c -27.61424,0 -50,-22.385762 -50,-49.999997 0,-27.61424 22.38576,-50 50,-50 z"
     id="path3041"
     style="fill:#9000cc;fill-opacity:1;stroke:none" /><path
     d="m 880,40 0,80 20,0 0,-100 z"
     id="rect3068"
     style="fill:#9000cc;fill-opacity:1;stroke:none" /><g
     transform="matrix(2,0,0,2,351.0382,-1.821)"
     id="g3021"
     style="fill-rule:evenodd"><g
       id="Слой_x0020_1"><metadata
         id="CorelCorpID_0Corel-Layer" /><path
         d="m 299.481,50.9104 c -2.761,0 -5,-2.239 -5,-4.9999 0,-2.761 2.239,-5.0001 5,-5.0001 2.7609,0 5,2.2391 5,5.0001 0,2.7609 -2.2391,4.9999 -5,4.9999 z m 9.9999,-29.9999 -9.9999,0 c -2.7609,0 -5,2.239 -5,5 l -10e-5,5.8554 c 1.5642,-0.5532 3.2467,-0.8554 5.0001,-0.8554 8.2828,0 14.9999,6.7171 14.9999,15.0001 0,8.2829 -6.717,14.9999 -14.9999,14.9999 -8.2829,0 -15.0001,-6.717 -15.0001,-14.9999 l 0,-20.0001 c 10e-5,-8.283 6.7172,-15 15.0001,-15 l 9.9999,10 z"
         id="path3014"
         style="fill:#9900cc" /></g></g></g><g
   id="g6301"><path
     d="m 43.279581,18.269727 -1.672697,-1.865048 -1.939087,1.556765 -2.393207,-2.705876 -1.855764,1.435654 -2.951643,-3.093282 -1.657256,1.599545 -4.368122,-3.484701 -1.614335,1.771742 -6.108654,-3.167833 1.125131,6.788575 -2.183921,0.987831 1.964372,5.231157 -2.033419,1.081883 2.02978,3.763033 -1.938853,1.321307 1.833884,3.112224 -2.079745,1.363154 1.256832,2.167127 19.388577,0.834109 5.198127,-18.697366 z m -27.171328,25.817784 -2.29071,1.014517 0.881369,2.325233 -3.312972,1.439899 0.791935,2.208601 -3.854006,1.851285 1.0091516,2.070462 -4.6639962,3.077466 1.1861998,2.082871 -4.90052702,4.830734 6.80406382,1.02772 0.2646159,2.38229 5.5821281,-0.251693 0.400563,2.268177 4.206096,-0.767583 0.657481,2.252269 3.526643,-0.782418 0.653702,2.399225 2.44947,-0.525686 6.784703,-18.181851 -16.17591,-10.721518 z m 16.157715,33.819618 0.257012,2.492064 2.48376,-0.119665 0.345699,3.595782 2.345201,-0.07068 0.569727,4.237447 2.280959,-0.319946 1.485619,5.386698 2.347441,-0.484491 3.079986,6.15344 3.079986,-6.15344 2.34744,0.484491 1.485619,-5.386698 2.28096,0.319946 0.569726,-4.237447 2.345201,0.07068 0.345699,-3.595782 2.483761,0.119665 0.257011,-2.492018 L 47.461372,65.836032 32.265968,77.907129 z m 19.377381,-59.637495 1.672697,-1.865048 1.939087,1.556765 2.393207,-2.705876 1.855764,1.435654 2.951643,-3.093283 1.657256,1.599546 4.368122,-3.484701 1.614335,1.771742 6.108654,-3.167834 -1.125131,6.788575 2.183921,0.987831 -1.964372,5.231157 2.033419,1.081884 -2.02978,3.763033 1.938853,1.321307 -1.833884,3.112223 2.079745,1.363155 L 76.230053,36.13289 56.841475,36.967 51.643349,18.269634 z m 27.171328,25.817784 2.29071,1.014516 -0.881369,2.325234 3.312972,1.439899 -0.791936,2.208601 3.854007,1.851285 -1.009152,2.070461 4.663996,3.077467 -1.186199,2.082871 4.900527,4.830734 -6.804064,1.02772 -0.264616,2.38229 -5.582128,-0.251693 -0.400563,2.268176 -4.206096,-0.767582 -0.657482,2.252268 -3.526642,-0.782418 -0.653702,2.399225 -2.44947,-0.525686 -6.784703,-18.18185 16.17591,-10.721518 z"
     id="_151840272"
     style="fill:#806600;fill-opacity:1" /><path
     d="M 30.810161,15.197485 26.442038,11.712784 38.081688,36.967093 30.810161,15.197485 z M 24.827703,13.484526 18.719049,10.316693 38.081688,36.967093 24.827703,13.484526 z M 19.84418,17.105268 17.660259,18.093099 38.081688,36.967093 19.84418,17.105268 z M 19.624631,23.324256 17.591213,24.406139 38.081688,36.967093 19.624631,23.324256 z M 43.279814,18.269727 41.607117,16.404679 38.081688,36.967093 43.279814,18.269727 z M 39.66803,17.961444 37.274824,15.255568 38.081688,36.967093 39.66803,17.961444 z M 35.41906,16.691222 32.467416,13.59794 38.081688,36.967093 35.41906,16.691222 z m -15.903037,15.911481 -2.079745,1.363154 20.64541,3.001236 -18.565665,-4.36439 z m 0.104969,-4.433531 -1.938853,1.321307 20.399549,7.476614 -18.460696,-8.797921 z M 9.3332539,54.997508 4.6692577,58.074974 32.284396,54.809029 9.3332539,54.997508 z M 5.8554575,60.157845 0.95493044,64.988579 32.284396,54.809029 5.8554575,60.157845 z m 1.9035367,5.858454 0.264616,2.38229 24.2607858,-13.58956 -24.5254018,11.20727 z m 5.8467438,2.130597 0.400563,2.268177 18.278095,-15.606044 -18.678658,13.337867 z m 2.502748,-24.059385 -2.29071,1.014517 18.46662,9.707001 -16.17591,-10.721518 z m -1.409341,3.33975 -3.312971,1.439899 20.898222,5.941869 -17.585251,-7.381768 z m -2.521036,3.6485 -3.8540067,1.851285 23.9602937,1.881983 -20.106287,-3.733268 z m 10.218412,20.04158 0.653702,2.399225 9.234173,-18.707537 -9.887875,16.308312 z M 18.212398,69.64749 18.869879,71.899759 32.284396,54.809029 18.212398,69.64749 z m 22.336162,18.074642 1.485619,5.386698 5.427426,-27.272798 -6.913045,21.8861 z m 3.833059,4.902207 3.079986,6.15344 0,-32.941747 -3.079986,26.788307 z m 6.159972,0 2.34744,0.484491 -5.427426,-27.272798 3.079986,26.788307 z m 3.833059,-4.902207 2.28096,0.319946 -9.194005,-22.206046 6.913045,21.8861 z M 32.266201,77.907129 32.523213,80.399193 47.461605,65.836032 32.266201,77.907129 z m 2.740772,2.372399 0.345699,3.595782 12.108933,-18.039278 -12.454632,14.443496 z m 2.6909,3.525103 0.569727,4.237447 9.194005,-22.206046 -9.763732,17.968599 z m 22.218363,-3.525103 2.483761,0.119665 -14.938392,-14.563161 12.454631,14.443496 z m -2.690899,3.525103 2.345201,0.07068 -12.108933,-18.039278 9.763732,17.968599 z m 6.887899,-68.607006 4.368123,-3.484701 -11.63965,25.254309 7.271527,-21.769608 z m 5.982457,-1.712959 6.108654,-3.167834 -19.362638,26.650401 13.253984,-23.482567 z m 4.983523,3.620741 2.183921,0.987832 -20.421428,18.873994 18.237507,-19.861826 z m 0.219549,6.218989 2.033419,1.081883 L 56.841709,36.967233 75.298765,23.324396 z M 51.643582,18.269867 53.31628,16.404819 56.841709,36.967233 51.643582,18.269867 z m 3.611784,-0.308283 2.393207,-2.705876 -0.806864,21.711525 -1.586343,-19.005649 z m 4.248971,-1.270222 2.951643,-3.093282 -5.614271,23.369153 2.662628,-20.275871 z m 15.903036,15.911481 2.079746,1.363154 -20.64541,3.001236 18.565664,-4.36439 z m -0.104969,-4.433531 1.938853,1.321307 -20.399548,7.476614 18.460695,-8.797921 z M 85.590143,54.997648 90.254139,58.075114 62.639,54.809169 85.590143,54.997648 z m 3.477796,5.160337 4.900527,4.830734 L 62.639,54.809169 89.067939,60.157985 z m -1.903537,5.858454 -0.264616,2.38229 L 62.639,54.809169 87.164402,66.016439 z M 81.317658,68.147036 80.917096,70.415213 62.639,54.809169 81.317658,68.147036 z M 78.81491,44.087651 81.10562,45.102168 62.639,54.809169 78.81491,44.087651 z m 1.409342,3.33975 L 83.537223,48.8673 62.639,54.809169 80.224252,47.427401 z m 2.521036,3.6485 3.854006,1.851285 L 62.639,54.809169 82.745288,51.075901 z M 72.526876,71.117481 71.873173,73.516706 62.639,54.809169 72.526876,71.117481 z M 76.710999,69.64763 76.053518,71.899899 62.639,54.809169 76.710999,69.64763 z"
     id="_151840200"
     style="fill:#ffffa9" /></g><g
   id="g6333"><path
     d="m 58.794511,33.962545 35.361547,0 c 0.781158,0 0.870032,0.594406 0.325405,0.990117 L 65.870422,55.739617 76.84228,89.507543 c 0.263777,0.81181 -0.176488,0.990724 -0.771547,0.558344 L 47.347725,69.197289 18.728473,89.990495 C 18.118345,90.433792 17.619764,90.22586 17.894131,89.38144 L 28.824981,55.739617 0.40176553,35.089122 c -0.66489892,-0.483138 -0.47898661,-1.126577 0.36907208,-1.126577 l 35.13005439,0 L 46.76069,0.53896494 c 0.231446,-0.71229838 0.938752,-0.72414825 1.173323,-0.002286 L 58.794511,33.962545 z"
     id="_151822536"
     style="fill:#ffd42a;fill-rule:nonzero" /><path
     d="m 2.0792212,35.012238 34.5821608,0 10.686342,-32.8895428 10.686342,32.8895428 34.582022,0 L 64.638735,55.338914 75.325077,88.228364 47.347724,67.901641 19.370325,88.228364 30.056714,55.338914 z"
     id="_151822464"
     style="fill:#ff0000" /><g
     transform="translate(124.17768,-9.3318275e-5)"
     id="g3978"
     style="fill-rule:evenodd"><g
       id="g3934"><path
         d="M -66.143861,35.012565 -76.830156,49.72105 -76.83011,2.1229284 z"
         id="path38"
         style="fill:url(#linearGradient4069);fill-opacity:1" /><path
         d="M -76.83011,49.72091 -87.516357,35.012425 -76.830063,2.1227885 z"
         id="path40"
         style="fill:url(#linearGradient4071);fill-opacity:1" /></g><g
       transform="matrix(0.30901699,-0.95105652,0.95105652,0.30901699,-100.37565,-38.713145)"
       id="g3938"><path
         d="M -66.143861,35.012565 -76.830156,49.72105 -76.83011,2.1229284 z"
         id="path3940"
         style="fill:url(#linearGradient4073);fill-opacity:1" /><path
         d="M -76.83011,49.72091 -87.516357,35.012425 -76.830063,2.1227885 z"
         id="path3942"
         style="fill:url(#linearGradient4075);fill-opacity:1" /></g><g
       transform="matrix(-0.30901699,-0.95105652,-0.95105652,0.30901699,-53.284405,-38.713195)"
       id="g3948"><path
         d="M -66.143861,35.012565 -76.830156,49.72105 -76.83011,2.1229284 z"
         id="path3950"
         style="fill:url(#linearGradient4077);fill-opacity:1" /><path
         d="M -76.83011,49.72091 -87.516357,35.012425 -76.830063,2.1227885 z"
         id="path3952"
         style="fill:url(#linearGradient4079);fill-opacity:1" /></g><g
       transform="matrix(-0.809017,-0.58778525,0.58778525,-0.809017,-168.21203,44.786531)"
       id="g3958"><path
         d="M -66.143861,35.012565 -76.830156,49.72105 -76.83011,2.1229284 z"
         id="path3960"
         style="fill:url(#linearGradient4081);fill-opacity:1" /><path
         d="M -76.83011,49.72091 -87.516357,35.012425 -76.830063,2.1227885 z"
         id="path3962"
         style="fill:url(#linearGradient4083);fill-opacity:1" /></g><g
       transform="matrix(0.809017,-0.58778525,-0.58778525,-0.809017,14.552139,44.786529)"
       id="g3968"><path
         d="M -66.143861,35.012565 -76.830156,49.72105 -76.83011,2.1229284 z"
         id="path3970"
         style="fill:url(#linearGradient4085);fill-opacity:1" /><path
         d="M -76.83011,49.72091 -87.516357,35.012425 -76.830063,2.1227885 z"
         id="path3972"
         style="fill:url(#linearGradient4087);fill-opacity:1" /></g></g></g><g
   id="g6295"><path
     d="m 70.58653,56.563556 2.438833,2.476763 0.321813,1.017922 c 0.529278,-0.255239 1.069987,0.04936 1.219557,0.493589 0.16935,0.502966 -0.574486,1.288883 -1.101059,0.812649 -9.33e-4,0.227434 -0.0023,0.45496 -0.0033,0.682394 -0.0059,2.048861 0.994269,3.997138 2.84966,5.702959 0.784704,0.721396 1.934234,0.932734 3.060345,1.160821 1.034484,0.378869 4.324735,4.656018 7.38704,8.811683 -1.745663,2.440326 -3.741946,4.630033 -5.909632,6.648336 -2.571841,-4.996586 -5.535521,-10.011273 -7.738337,-15.17301 -0.607003,-1.422311 -1.142953,-2.888895 -1.795769,-4.284754 l -0.140005,0.0704 c -1.354991,0.716264 -2.322528,-0.470076 -3.425592,-2.161762 l 0.463451,-0.64983 c 0.78811,1.282679 1.710114,2.475083 2.535825,1.976129 l 0.143365,-0.09335 c -0.629769,-1.208734 -1.382376,-2.342869 -2.389848,-3.322349 l 2.083431,-4.168588 z M 19.183294,9.9231743 33.439618,22.470225 l -1.920145,1.685154 1.655716,1.546268 c 0.137626,-0.137859 0.564968,0.261164 0.427295,0.39907 l 0.416798,0.389273 c 0.137627,-0.13786 0.564968,0.26121 0.427295,0.399117 l 2.590689,2.419519 -1.856137,2.149211 -1.269989,0.781532 -5.8794,-6.138605 c -0.239424,-0.24992 0.543041,-0.934647 0.781531,-0.68384 l 0.235225,-0.232799 -0.888134,-0.908567 c -0.555358,-0.568048 1.12905,-2.202956 1.7096,-1.660755 l 0.494709,0.462052 0.549946,-0.623565 -12.288734,-11.989454 c -0.446889,-0.436019 0.05631,-0.9816261 0.557411,-0.5406617 z"
     id="_48614904"
     style="fill:#ffeeaa;fill-opacity:1" /><path
     d="m 69.986105,57.335664 2.438834,2.476762 0.321812,1.017923 c 0.529279,-0.255239 1.069987,0.04936 1.219557,0.493589 0.169351,0.502966 -0.574485,1.288883 -1.101058,0.812649 -9.33e-4,0.227433 -0.0023,0.45496 -0.0033,0.682394 -0.0059,2.04886 0.99427,3.997137 2.84966,5.702959 0.784704,0.721395 1.934235,0.932734 3.060346,1.16082 1.034484,0.378869 4.324735,4.656019 7.38704,8.811684 C 84.413333,80.93477 82.41705,83.124476 80.249364,85.14278 77.677556,80.146194 74.713876,75.131507 72.51106,69.96977 71.904058,68.547459 71.368108,67.080874 70.715292,65.685016 l -0.140006,0.0704 c -1.35499,0.716264 -2.322527,-0.470076 -3.425591,-2.161761 l 0.463451,-0.64983 c 0.788109,1.282678 1.710113,2.475083 2.535825,1.976129 L 70.292336,64.8266 C 69.662567,63.617867 68.90996,62.483732 67.902488,61.504252 l 2.083431,-4.168588 z m -51.403236,-46.640382 14.256325,12.547051 -1.920145,1.685154 1.655716,1.546268 c 0.137626,-0.13786 0.564968,0.261163 0.427295,0.39907 l 0.416798,0.389273 c 0.137626,-0.13786 0.564968,0.26121 0.427295,0.399116 l 2.590689,2.419519 -1.856137,2.149212 -1.269989,0.781531 -5.879401,-6.138605 c -0.239423,-0.24992 0.543041,-0.934646 0.781532,-0.68384 l 0.235224,-0.232798 -0.888133,-0.908568 c -0.555358,-0.568047 1.129049,-2.202956 1.7096,-1.660754 l 0.494708,0.462051 0.549946,-0.623564 -12.288733,-11.989454 c -0.446889,-0.436019 0.05631,-0.981627 0.55741,-0.540662 z"
     id="_151822320"
     style="fill:#554400" /><path
     d="m 69.445397,58.630752 3.69352,3.746284 c -0.02202,2.066589 0.9792,4.032081 2.849287,5.751339 0.784703,0.721442 1.934234,0.932734 3.060345,1.16082 1.034484,0.378869 4.324735,4.656019 7.38704,8.811684 -1.745663,2.440326 -3.741946,4.630032 -5.909632,6.648336 -2.571842,-4.996586 -5.535522,-10.011273 -7.738338,-15.17301 -1.271761,-2.979916 -2.230807,-6.153861 -4.608572,-8.465518 l 1.26635,-2.479935 z m 0.258178,-0.331517 3.438048,3.443787 c 0.526572,0.476234 1.270408,-0.309683 1.101058,-0.812649 -0.14957,-0.44423 -0.690279,-0.748828 -1.219557,-0.493589 l -0.321813,-1.017923 -2.438833,-2.476762 -0.558903,1.357136 z m 0.721955,6.227153 c -0.825712,0.498954 -1.747716,-0.693451 -2.535825,-1.976129 l -0.463451,0.64983 c 1.103064,1.691685 2.070601,2.878025 3.425591,2.161761 L 70.42553,64.526388 z M 18.787629,10.29178 33.043954,22.838831 31.0403,24.597277 c -0.38932,0.341687 -1.482167,-0.68594 -1.139407,-1.074606 L 30.518952,22.821896 18.230219,10.832442 c -0.446889,-0.436019 0.05631,-0.9816266 0.55741,-0.540662 z m 17.853973,19.385451 -2.470697,-2.307458 -1.890708,1.893786 2.505268,2.562884 1.856137,-2.149212 z m -2.590689,-2.419519 c 0.137673,-0.137906 -0.289669,-0.536976 -0.427295,-0.399116 l -1.866634,1.869713 c -0.13758,0.137813 0.270914,0.555684 0.408494,0.417871 l 1.885435,-1.888468 z m -0.547287,-0.511177 -0.176815,-0.165152 -1.853618,1.856604 0.169071,0.172943 1.861362,-1.864395 z M 33.20682,26.469323 c 0.137673,-0.137907 -0.289669,-0.53693 -0.427295,-0.39907 l -1.829545,1.832484 c -0.13758,0.137813 0.270867,0.555777 0.408494,0.417918 l 1.848346,-1.851332 z m -0.547287,-0.511131 -1.415219,-1.321727 -0.09601,0.08426 c -0.543088,0.47656 -1.862389,-0.748688 -1.3702,-1.306705 l 0.07105,-0.08052 -0.374857,-0.350084 c -0.58055,-0.542248 -2.264958,1.092707 -1.7096,1.660754 l 3.070609,3.141242 1.824226,-1.827213 z m 1.735166,6.11248 -5.977092,-6.285143 c -0.23849,-0.250806 -1.020955,0.43392 -0.781532,0.68384 l 5.879401,6.138605 0.879223,-0.537302 z"
     id="_151823040"
     style="fill:#ffd42a" /><path
     d="m 30.944988,23.83226 c -0.08957,0.09205 -0.236904,0.0941 -0.328951,0.0045 -0.09205,-0.08957 -0.0941,-0.236904 -0.0047,-0.328951 l 0.491396,-0.507351 c 0.08957,-0.09205 0.236904,-0.0941 0.328951,-0.0045 0.09205,0.08957 0.0941,0.236904 0.0047,0.328951 l -0.491396,0.507351 z m -2.302187,-0.03518 c 0.238817,-0.233312 0.553771,-0.297879 0.703434,-0.144671 0.14999,0.153302 0.07749,0.46695 -0.161559,0.699982 -0.238817,0.233405 -0.553772,0.297926 -0.703434,0.144718 -0.14999,-0.153302 -0.07749,-0.46695 0.161559,-0.700029 z m 41.435071,33.53676 1.454874,1.525228 -0.20322,0.237464 -1.385642,-1.40491 0.133988,-0.357782 z"
     id="_151822968"
     style="fill:#554400;fill-rule:nonzero" /></g><g
   transform="translate(56.444449,0)"
   id="g6376"><path
     d="m -43.574056,65.057486 c -0.886687,-1.072273 -1.108243,-3.313578 0.625804,-3.723145 0.607329,-0.143458 1.257205,0.0418 1.677223,0.550973 0.355216,0.430514 0.413719,1.138986 0.01782,1.560263 -0.387733,0.412413 -1.028606,0.396411 -1.374958,-0.06564 -0.184933,-0.246654 -0.248661,-0.582323 -0.12447,-0.891865 -0.33189,-0.09993 -0.613954,0.252113 -0.580131,0.637093 0.04885,0.555405 0.335296,0.968517 0.681461,1.3458 0.496668,0.541362 1.01643,1.067328 1.542582,1.58639 20.296726,-18.228785 41.006284,-35.648324 56.13572,-55.183532 0.735439,-0.9495757 1.442558,-1.4284224 1.798101,-0.109868 0.659534,2.445878 -5.309721,10.177684 -7.212697,12.401494 -12.834294,14.997734 -29.577832,30.342521 -47.780163,45.662721 1.616201,1.459727 3.384584,3.208235 3.409777,5.12852 0.016,1.215125 -0.824826,2.130691 -1.718138,3.26212 -1.530639,1.93848 -4.209362,4.492593 -6.795573,4.846409 -1.947857,0.266483 -3.698698,-1.371692 -5.170694,-3.198531 -0.14887,0.265362 -0.291395,0.463731 -0.525454,0.642506 -1.159187,0.885334 -3.77129,-2.638742 -2.616254,-3.531075 0.232891,-0.179894 0.417218,-0.277912 0.664199,-0.42053 0.113693,-0.596879 0.625383,-1.009105 1.279226,-1.193944 0.387313,-0.396738 0.919251,-0.872412 1.412933,-1.262478 0.238024,-0.461025 0.794828,-0.803178 1.222076,-1.222029 0.20392,-0.473995 0.873205,-0.855383 1.244469,-1.201595 0.202008,-0.464478 0.966185,-0.901897 1.300827,-1.19987 0.229113,-0.492562 1.007472,-0.895598 1.379623,-1.206587 0.226361,-0.372104 0.942438,-0.781811 1.378387,-1.138194 -0.640103,-0.679081 -1.281302,-1.361335 -1.871696,-2.075406 z m 4.669268,4.928845 c -0.562122,0.495969 -1.317575,1.165673 -1.867474,1.66444 -0.207886,0.485332 -0.935113,0.853984 -1.301013,1.192965 l 0,-9.33e-4 c -0.208586,0.483325 -0.896951,0.840827 -1.26537,1.18522 -0.250107,0.486218 -0.908054,0.86714 -1.279739,1.22063 -0.211152,0.499607 -0.930541,0.903342 -1.293455,1.257299 -0.175089,0.481366 -0.930168,0.953214 -1.271155,1.264343 0.06172,0.0585 0.123817,0.117006 0.186006,0.175182 l -0.426409,0.383768 c 0.299792,0.527599 0.704181,1.049227 1.170384,1.408175 0.828931,0.638213 1.853432,0.912113 2.833518,0.859069 2.014945,-0.109075 6.519574,-4.140363 6.841713,-6.388479 0.231959,-1.619186 -1.319954,-3.20329 -2.327006,-4.221492 z"
     id="_48615672"
     style="fill:#ffffa9;fill-opacity:1;fill-rule:nonzero" /><path
     d="m -40.867388,67.23357 c -0.640079,-0.678988 -1.281278,-1.361242 -1.871672,-2.075314 -0.886688,-1.072273 -1.108243,-3.313577 0.625803,-3.723144 0.60733,-0.143458 1.257206,0.0418 1.677223,0.550972 0.355216,0.430514 0.413719,1.138987 0.01782,1.560264 -0.387733,0.412413 -1.028606,0.396411 -1.374958,-0.06564 -0.184933,-0.246655 -0.248661,-0.582323 -0.12447,-0.891866 -0.33189,-0.09993 -0.613954,0.252113 -0.580131,0.637094 0.04885,0.555404 0.335296,0.968517 0.681461,1.3458 0.496668,0.541361 1.016429,1.067328 1.542582,1.586389 20.296727,-18.228784 41.006285,-35.648324 56.135721,-55.183532 0.735438,-0.949575 1.442558,-1.4284218 1.798101,-0.109867 0.659534,2.445878 -5.309721,10.177684 -7.212698,12.401493 -12.834293,14.997735 -29.577831,30.342521 -47.780162,45.662722 1.616201,1.459726 3.384584,3.208235 3.409777,5.12852 0.016,1.215125 -0.824826,2.13069 -1.718138,3.262119 -1.530639,1.93848 -4.209363,4.492593 -6.795573,4.84641 -1.947857,0.266482 -3.698698,-1.371692 -5.170695,-3.198531 -0.148869,0.265362 -0.291395,0.463731 -0.525453,0.642505 -1.159187,0.885334 -3.77129,-2.638742 -2.616255,-3.531074 0.232892,-0.179894 0.417218,-0.277912 0.664199,-0.42053 0.113694,-0.596879 0.625384,-1.009105 1.279226,-1.193945 0.387314,-0.396737 0.919252,-0.872411 1.412934,-1.262477 0.238024,-0.461025 0.794828,-0.803179 1.222076,-1.22203 0.20392,-0.473994 0.873205,-0.855383 1.244469,-1.201595 0.202008,-0.464477 0.966184,-0.901896 1.300827,-1.199869 0.229113,-0.492563 1.007472,-0.895598 1.379623,-1.206587 0.22636,-0.372105 0.942438,-0.781812 1.37841,-1.138101 z m 2.797596,2.853532 c -0.562123,0.495968 -1.317575,1.165672 -1.867474,1.66444 -0.207886,0.485331 -0.935113,0.853984 -1.301013,1.192964 l 0,-9.33e-4 c -0.208586,0.483326 -0.896951,0.840828 -1.26537,1.18522 -0.250107,0.486218 -0.908055,0.86714 -1.279739,1.22063 -0.211152,0.499607 -0.930541,0.903343 -1.293455,1.257299 -0.175089,0.481366 -0.930168,0.953215 -1.271155,1.264344 0.06172,0.0585 0.123817,0.117006 0.186005,0.175182 l -0.426408,0.383768 c 0.299792,0.527599 0.70418,1.049226 1.170384,1.408175 0.828931,0.638213 1.853432,0.912113 2.833518,0.859068 2.014944,-0.109074 6.519574,-4.140362 6.841713,-6.388478 0.231959,-1.619187 -1.319954,-3.20329 -2.327006,-4.221492 z"
     id="_48615288"
     style="fill:#554400;fill-opacity:1" /><path
     d="m -50.505203,75.569999 c 1.773935,2.232347 4.444494,6.945935 7.648204,6.50763 2.58621,-0.353816 5.264934,-2.90793 6.795573,-4.846409 0.893312,-1.13143 1.734139,-2.046995 1.718137,-3.26212 -0.0342,-2.607484 -3.282273,-4.898474 -4.999478,-6.579383 -0.972855,-0.952281 -1.973096,-1.90265 -2.893793,-2.906157 -0.346166,-0.377283 -0.632615,-0.790395 -0.681461,-1.345799 -0.03382,-0.384981 0.248241,-0.737025 0.58013,-0.637094 -0.12419,0.309543 -0.06046,0.645211 0.12447,0.891866 0.346352,0.462051 0.987225,0.478053 1.374958,0.06564 0.395898,-0.421277 0.337395,-1.12975 -0.01782,-1.560264 -0.420017,-0.509171 -1.069894,-0.69443 -1.677223,-0.550972 -1.734046,0.409567 -1.512491,2.650871 -0.625804,3.723144 0.888694,1.074839 1.892154,2.077273 2.834312,3.105739 0.48925,0.534084 1.191564,1.171924 1.881423,1.870086 1.262617,1.277873 2.48348,2.757941 2.28054,4.174513 -0.32214,2.248116 -4.826769,6.279404 -6.841713,6.388479 -0.980087,0.05304 -2.004587,-0.220856 -2.833518,-0.859069 -0.466205,-0.358948 -0.870593,-0.880575 -1.170386,-1.408174 l 0.426409,-0.383768 c -1.138101,-1.065462 -2.19064,-2.173891 -2.643734,-3.581833 -0.653842,0.18484 -1.165532,0.597066 -1.279226,1.193945 z m -0.162352,0.169957 c -0.163752,0.03518 -0.342853,0.127736 -0.501847,0.250573 -1.155035,0.892332 1.457068,4.416409 2.616255,3.531074 0.167158,-0.127689 0.311129,-0.284303 0.390813,-0.438305 -0.5478,-0.675676 -1.056411,-1.377944 -1.523781,-2.023155 -0.35349,-0.488037 -0.682861,-0.942718 -0.98144,-1.320187 z m 2.877652,-2.644667 c -0.403316,0.902783 0.484491,2.619614 0.659207,4.006982 -0.741457,-0.754426 -1.434674,-1.598286 -1.806405,-2.601886 l 0.002,-0.02477 c 0.04325,-0.489623 0.810923,-1.038683 1.145192,-1.380323 z m 1.205701,-1.210366 c -0.315655,1.126717 0.945283,3.201517 0.761097,4.672487 -0.05715,0.457293 -0.43392,0.759931 -0.776866,1.064855 -0.07026,-0.06671 -0.140006,-0.133661 -0.209239,-0.200888 -0.08491,-1.383495 -0.967024,-3.159949 -0.869286,-4.055174 0.07194,-0.660933 0.563289,-0.957973 1.094294,-1.48128 z m 1.247595,-1.204255 c -0.234059,1.126158 0.906375,3.086051 0.80663,4.534908 -0.04222,0.613953 -0.554704,0.898164 -0.974161,1.309643 0.107955,-1.528446 -1.10535,-3.539705 -0.923824,-4.547503 0.100118,-0.555918 0.680995,-0.909408 1.091355,-1.297048 z m 1.296954,-1.19595 c -0.257478,1.080671 0.828931,2.973104 0.797673,4.412676 -0.01474,0.681601 -0.51253,0.931008 -0.979433,1.380743 0.08789,-1.513097 -1.069894,-3.479196 -0.94911,-4.516572 0.06126,-0.527739 0.760351,-0.943651 1.13087,-1.276847 z m 1.384335,-1.210226 c -0.445117,0.982046 0.733759,2.99769 0.693824,4.474725 -0.01694,0.631262 -0.539403,0.891306 -0.975562,1.303579 0.06923,-1.471157 -1.022914,-3.360978 -0.949295,-4.396255 0.04297,-0.605276 0.807097,-1.022168 1.231033,-1.382049 z m 1.20724,-0.959886 c -0.200561,1.057344 0.830564,2.913948 0.766556,4.283727 -0.02827,0.60579 -0.554005,0.866114 -0.977007,1.257999 0.04437,-1.442885 -1.023801,-3.334571 -0.900124,-4.29679 0.08052,-0.626317 0.549853,-0.838495 1.090281,-1.266443 l 0.02029,0.02151 z m 2.780894,2.836411 c -0.573226,0.505578 -1.143279,1.015823 -1.710393,1.530545 0.05874,-1.297047 -0.76455,-2.994004 -0.880903,-3.999703 -0.0077,-0.0669 -0.01274,-0.126757 -0.01428,-0.181154 0.852678,0.904929 1.727795,1.767123 2.605572,2.650312 z M 15.442067,10.886419 c 0.735439,-0.949622 1.442558,-1.428422 1.798101,-0.109868 0.659534,2.445879 -5.309674,10.177684 -7.212698,12.401494 -12.842831,15.007765 -29.388979,30.176856 -47.605679,45.507227 -1.006306,-0.909548 -1.973843,-1.815736 -2.939047,-2.767784 20.29957,-18.231816 40.827275,-35.492922 55.959323,-55.031069 z"
     id="_151822752"
     style="fill:#ffd42a" /><path
     d="m -37.530157,65.40757 0.678662,0.677635 C -18.909908,49.259605 2.690909,29.667761 13.71292,16.029775 -2.830756,33.324565 -20.274042,49.291889 -37.52983,65.407804 z"
     id="_151822680"
     style="fill:#ffffbb;fill-rule:nonzero" /><path
     d="M -37.102162,65.877133 C -19.160575,49.051533 2.440242,29.459688 13.462253,15.821703 -3.081423,33.116492 -20.524709,49.083817 -37.78066,65.199614 z"
     id="_48615552"
     style="fill:#554400;fill-opacity:1" /><path
     d="M -36.908598,65.880865 C -18.967011,49.055265 2.633806,29.463421 13.655816,15.825435 -2.88786,33.120225 -20.331146,49.087549 -37.587097,65.203346 z"
     id="_151822608"
     style="fill:#aa8800" /></g><g
   id="g6305"><g
     id="g4961"><path
       d="m 72.683207,49.877944 c -9e-5,13.843119 -11.37848,25.221512 -25.221648,25.221419 -13.843119,-9.4e-5 -25.221512,-11.378535 -25.221418,-25.221699 0,-13.843165 11.378579,-25.221418 25.221651,-25.221418 13.843215,9.3e-5 25.221415,11.378486 25.221415,25.221698 z"
       id="path42-8"
       style="fill:#806600;fill-opacity:1;fill-rule:nonzero" /><path
       d="m 23.171567,49.877711 c -9.3e-5,13.330076 10.959916,24.290131 24.289991,24.290224 13.330169,0 24.290131,-10.959822 24.290224,-24.28999 0,-13.330169 -10.959775,-24.290178 -24.28999,-24.290271 -13.330029,0 -24.290225,10.959915 -24.290225,24.290037 z"
       id="_151812600"
       style="fill:#ffffff;fill-rule:nonzero" /><path
       d="m 65.506482,49.877711 c -9.4e-5,9.904298 -8.140487,18.044597 -18.044784,18.044504 -9.904297,-9.3e-5 -18.044597,-8.140486 -18.044503,-18.04483 0,-9.904344 8.140579,-18.044504 18.044783,-18.044504 9.904297,9.3e-5 18.044597,8.140486 18.044504,18.04483 z"
       id="_151812528"
       style="fill:#806600;fill-rule:nonzero" /><path
       d="m 30.348296,49.877711 c -9.4e-5,9.391254 7.721915,17.113356 17.113122,17.11345 9.391208,0 17.11331,-7.721823 17.113403,-17.113123 0,-9.391254 -7.721822,-17.113356 -17.113123,-17.113449 -9.39116,0 -17.113402,7.721868 -17.113402,17.113122 z"
       id="_151812456"
       style="fill:#aa0000;fill-opacity:1;fill-rule:nonzero" /></g><g
     id="g4976"
     style="fill:#806600"><path
       d="m 32.486404,65.050675 c 0.85291,-1.099426 2.455302,-1.301806 3.554774,-0.448989 1.099425,0.85291 1.301899,2.455395 0.448942,3.554867 -0.852818,1.099425 -2.455396,1.301666 -3.554774,0.448942 -1.099519,-0.852864 -1.30176,-2.455395 -0.448942,-3.55482 z m 3.194192,2.477882 c 0.506886,-0.653516 0.386241,-1.610369 -0.267368,-2.117301 -0.653469,-0.506885 -1.610323,-0.386194 -2.117254,0.267368 -0.506885,0.653469 -0.386241,1.610369 0.267322,2.117301 0.653468,0.506885 1.610369,0.386147 2.1173,-0.267368 z"
       id="_151778208"
       style="fill:#806600;fill-rule:nonzero" /><path
       d="m 112.258,133.788 2.62,3.519 -1.764,1.313 -6.554,-8.802 1.764,-1.314 2.62,3.519 6.027,-4.487 1.313,1.764 z"
       transform="matrix(0.46653025,0,0,0.46653025,-22.575829,1.2554621)"
       id="_151811808"
       style="fill:#806600" /><path
       d="m 113.774,122.56 -9.061,3.5 -2.888,-7.478 2.052,-0.793 2.096,5.426 1.319,-0.509 -1.753,-4.537 2.053,-0.792 1.752,4.536 1.585,-0.613 -2.096,-5.426 2.053,-0.792 z"
       transform="matrix(0.46653025,0,0,0.46653025,-22.575829,1.2554621)"
       id="_151811736"
       style="fill:#806600" /><path
       d="m 30.125294,38.873429 c 0.770848,0.735905 1.025247,1.917999 0.543741,2.927804 -0.598978,1.255946 -2.121499,1.795255 -3.377492,1.19623 -1.255946,-0.598885 -1.795115,-2.121546 -1.19623,-3.377399 0.481505,-1.009758 1.56017,-1.556112 2.617188,-1.420305 l -0.482673,1.012184 c -0.506372,0.05365 -0.976681,0.360348 -1.209759,0.849085 -0.355963,0.746495 -0.03406,1.655716 0.712485,2.011679 0.746542,0.355962 1.655669,0.03415 2.011678,-0.712438 0.233079,-0.488784 0.175509,-1.047408 -0.101563,-1.474749 l 0.482625,-1.012091 z"
       id="_151811664"
       style="fill:#806600;fill-rule:nonzero" /><path
       d="m 70.100872,56.152543 -0.360955,0.960773 -2.647139,-0.99455 1.899944,2.983228 -0.360954,0.960819 -4.242113,-1.593854 0.360954,-0.960772 2.638975,0.99147 -1.89178,-2.980149 0.360955,-0.960772 4.242113,1.593807 z m -1.240784,1.081651 0.794687,0.298579 -0.368185,0.979947 -0.794688,-0.29858 0.368186,-0.979946 z"
       id="_151778496"
       style="fill:#806600" /><path
       d="m 26.183393,53.970102 1.87e-4,0.0019 -3.26e-4,0 -1.857537,0.174296 -0.09587,-1.021888 1.857537,-0.174296 3.26e-4,0 1.87e-4,0.0019 c 0.08374,-0.0079 0.157734,-0.05057 0.209379,-0.1129 l 9.33e-4,9.33e-4 c 0.05104,-0.06214 0.07866,-0.142665 0.07077,-0.226967 l -0.169537,-1.807245 -2.168129,0.203543 -0.0958,-1.021752 4.511814,-0.423283 0.09587,1.021888 -1.325739,0.124377 0.169584,1.807245 c 0.03415,0.367019 -0.0829,0.712438 -0.299606,0.975205 -0.21689,0.26286 -0.53553,0.442334 -0.904043,0.477044 z"
       id="_151778424"
       style="fill:#806600" /><path
       d="m 67.294226,37.204277 -3.574462,2.785512 -0.630889,-0.80957 1.307731,-1.019135 -0.682767,-0.876144 -1.946551,0.199349 -0.744628,-0.955454 2.050727,-0.210126 c -0.176955,-0.55797 -0.0023,-1.196556 0.484071,-1.574353 0.621419,-0.482672 1.532599,-0.370098 2.015831,0.2516 l 1.720937,2.208321 z m -2.089496,0.327084 0.65053,-0.506978 -1.091168,-1.400151 c -0.140472,-0.178354 -0.400096,-0.210918 -0.578964,-0.07021 -0.177888,0.140005 -0.211245,0.399676 -0.07077,0.578171 l 1.090374,1.39917 z"
       id="_151778280"
       style="fill:#806600" /><path
       d="m 61.883874,31.389444 -1.256785,4.685317 -0.889767,-0.644558 0.285423,-1.064016 -1.736099,-1.257719 -0.922097,0.602804 -0.88972,-0.644558 4.060306,-2.654371 1.348739,0.977101 z m -1.576499,1.915573 0.402103,-1.498961 -0.2042,-0.147937 -1.299007,0.849225 1.101104,0.797673 z"
       id="_151778136"
       style="fill:#806600" /><path
       d="m 109.502,101.5 -9.5812,-1.6006 1.3212,-7.9072 2.17,0.3625 -0.959,5.7372 1.395,0.2329 0.801,-4.7962 2.17,0.3625 -0.801,4.7962 1.676,0.2801 0.959,-5.7372 2.169,0.3624 z"
       transform="matrix(0.46653025,0,0,0.46653025,-22.575829,1.2554621)"
       id="_151778064"
       style="fill:#806600" /><path
       d="m 113.227,73.454 -2.886,3.3043 -1.657,-1.4472 7.22,-8.2656 1.657,1.4473 -2.887,3.3043 5.659,4.9427 -1.447,1.657 z"
       transform="matrix(0.46653025,0,0,0.46653025,-22.575829,1.2554621)"
       id="_151777992"
       style="fill:#806600" /><path
       d="m 32.937072,31.356694 2.425911,-1.558585 c 0.643951,-0.413765 1.505353,-0.225567 1.918325,0.419458 0.156521,0.244462 0.225614,0.52186 0.215864,0.794314 0.340987,0.07889 0.652816,0.28561 0.856036,0.602944 0.410174,0.640592 0.221369,1.507592 -0.419597,1.917999 l -2.547022,1.636448 -2.449517,-3.812578 z m 1.418299,0.308703 0.392585,0.611061 1.562223,-1.004206 c 0.167858,-0.109122 0.217263,-0.334129 0.108188,-0.502593 -0.109261,-0.168791 -0.333475,-0.21745 -0.503199,-0.108609 l -1.559797,1.004347 z m 0.947383,1.474562 0.392538,0.611015 1.68674,-1.081418 c 0.167858,-0.109121 0.217263,-0.334129 0.108189,-0.502593 -0.109262,-0.16879 -0.333476,-0.217449 -0.5032,-0.108655 l -1.684267,1.081651 z"
       id="_151777920"
       style="fill:#806600" /><path
       d="m 135.351,66.2829 -2.616,-9.3545 7.72,-2.1594 0.593,2.1187 -5.602,1.5668 0.381,1.3614 4.683,-1.3098 0.592,2.1187 -4.683,1.3098 0.458,1.637 5.602,-1.5668 0.592,2.1187 z"
       transform="matrix(0.46653025,0,0,0.46653025,-22.575829,1.2554621)"
       id="_151777848"
       style="fill:#806600" /><path
       d="m 146.742,63.5997 0.262,-9.71 2.199,0.0594 -0.092,3.4132 4.552,0.1228 0.092,-3.4132 2.199,0.0593 -0.262,9.71 -2.199,-0.0594 0.11,-4.0975 -4.551,-0.1228 -0.111,4.0975 z"
       transform="matrix(0.46653025,0,0,0.46653025,-22.575829,1.2554621)"
       id="_151777776"
       style="fill:#806600" /><path
       d="m 158.582,64.3463 3.047,-9.2233 2.089,0.6901 -1.071,3.2421 4.324,1.4284 1.071,-3.2422 2.089,0.6901 -3.047,9.2233 -2.089,-0.6901 1.285,-3.8922 -4.323,-1.4283 -1.286,3.8921 z"
       transform="matrix(0.46653025,0,0,0.46653025,-22.575829,1.2554621)"
       id="_151777704"
       style="fill:#806600" /><path
       d="m 68.349984,54.140398 c -1.386762,-0.1143 -2.431183,-1.346313 -2.316976,-2.733074 0.1143,-1.386761 1.346313,-2.431322 2.733121,-2.317022 1.386761,0.114206 2.431182,1.346452 2.316975,2.733074 -0.114206,1.386854 -1.346406,2.431182 -2.73312,2.317022 z m 0.332029,-4.029002 c -0.824265,-0.06788 -1.56003,0.555638 -1.62791,1.379997 -0.06788,0.824219 0.555637,1.56003 1.379996,1.62791 0.824219,0.06788 1.560031,-0.555684 1.627911,-1.379996 0.06788,-0.824219 -0.555731,-1.560031 -1.379997,-1.627911 z"
       id="_151732640"
       style="fill:#806600;fill-rule:nonzero" /><path
       d="m 60.069538,69.64833 -3.996205,-2.750009 0.904789,-0.623238 0.907542,0.624498 1.76549,-1.216151 -0.260091,-1.070501 0.904789,-0.623237 1.145239,4.713821 -1.371553,0.944817 z m -1.278759,-2.125931 1.278479,0.879782 0.207606,-0.142991 -0.366366,-1.508106 -1.119719,0.771315 z"
       id="_152639168"
       style="fill:#806600" /><path
       d="m 69.955781,42.948524 0.586615,2.823161 c 0.155681,0.749434 -0.328484,1.486272 -1.078571,1.640927 -0.284304,0.0586 -0.568048,0.02379 -0.818948,-0.0829 -0.195802,0.290135 -0.500493,0.507258 -0.869519,0.583349 -0.745002,0.153629 -1.486878,-0.333149 -1.640553,-1.078571 l -0.615867,-2.9641 4.436843,-0.921864 z m -0.796087,1.213725 -0.711132,0.14775 0.378216,1.818162 c 0.0418,0.195849 0.234198,0.322559 0.43056,0.281038 0.19669,-0.04157 0.322419,-0.233545 0.281598,-0.430934 l -0.379242,-1.816016 z m -1.716039,0.356523 -0.711038,0.14775 0.405741,1.962086 c 0.04175,0.195849 0.234151,0.322559 0.430514,0.281038 0.196736,-0.04162 0.322419,-0.233545 0.281598,-0.430934 l -0.406815,-1.95994 z"
       id="_152639360"
       style="fill:#806600" /><path
       d="m 184.963,125.384 7.698,5.924 -1.342,1.743 -2.706,-2.082 -2.777,3.608 2.706,2.083 -1.342,1.743 -7.697,-5.924 1.341,-1.743 3.249,2.5 2.777,-3.609 -3.249,-2.5 z"
       transform="matrix(0.46653025,0,0,0.46653025,-22.575829,1.2554621)"
       id="_152639816"
       style="fill:#806600" /><path
       d="m 151.972,147.273 3.576,0.654 -2.509,2.631 0.483,3.603 -3.278,-1.572 -3.277,1.572 0.483,-3.603 -2.509,-2.631 3.577,-0.654 1.726,-3.199 z"
       transform="matrix(0.46653025,0,0,0.46653025,-22.575829,1.2554621)"
       id="_151812384"
       style="fill:#806600" /></g></g><g
   id="g6354"><path
     d="m 147.712,86.9344 -5.963,6.2904 -0.152,0.1476 0.007,0.006 -3.69,3.8929 -0.004,-0.0032 -0.064,0.0747 -4.308,4.5452 -7.85,-7.4104 10.054,-10.6067 10.174,0.9825 z"
     transform="matrix(0.46653025,0,0,0.46653025,-22.575829,1.2554621)"
     id="_152538904"
     style="fill:#ffffbb;fill-rule:nonzero" /><path
     d="m 40.742123,40.917485 4.933557,0.270307 0.209473,0.569167 -6.12321,6.468769 -3.523236,-2.904804 z"
     id="_152520168"
     style="fill:#ffd42a" /><path
     d="m 39.723688,48.789296 -0.387221,-0.914306 6.339213,-6.687291 0.660607,0.62529 z"
     id="_151812096"
     style="fill:#d4aa00" /><path
     d="m 41.837439,51.979941 c 2.466999,2.14422 6.425592,3.261382 8.599178,1.198032 2.677647,-2.541848 3.193417,-6.4374 1.986683,-10.218516 -0.738753,-2.314769 -2.959394,-4.989356 -4.95689,-7.027487 l 0.02207,-0.675457 c 3.532474,2.106898 5.193368,4.901087 6.315607,7.797634 1.769269,4.566631 0.697276,9.117214 -2.509047,11.414455 -4.488301,3.215653 -8.671071,0.762311 -11.715647,-3.110217 l 0.976256,-0.769964 z"
     id="_151754024"
     style="fill:#ffd42a;fill-opacity:1" /><path
     d="m 52.385785,53.20967 5.768926,5.434238 c 0.757319,0.713325 -1.054918,2.626845 -1.778133,1.878764 l -5.883086,-5.594351 z m -3.018582,0.604603 -7.60002,-7.184079 c -0.499374,-0.595339 1.091075,-2.275548 1.712819,-1.809717 l 7.929158,7.42784 c 0.492546,0.506618 -1.219008,2.343866 -2.041957,1.565956 z"
     id="_152520792"
     style="fill:#ffffbb;fill-rule:nonzero" /><path
     d="M 56.372286,60.018679 41.753094,45.990348 c 0.18414,-0.442924 0.650763,-0.936699 1.083097,-1.146685 l 8.35495,7.796934 c -0.04315,0.652116 -0.701755,1.088508 -0.972809,1.278433 l 2.217232,-0.120738 5.28882,4.933604 c 1.007752,0.940011 -0.328904,2.268643 -1.352098,1.286783 z"
     id="_151840920"
     style="fill:#ffd42a" /><path
     d="m 33.413399,57.625379 c 0.30833,-0.283977 0.535624,-0.168604 0.801313,-0.530305 0.29676,-0.403968 0.102403,-0.651463 0.247074,-1.121865 0.08314,-0.270401 0.236811,-0.523027 0.459859,-0.728487 0.762824,-0.702641 1.871906,-1.250768 2.954956,-1.898498 -0.05598,-0.396178 0.31836,-0.817408 0.719949,-0.79856 l -0.03042,-0.382322 1.719677,-1.35569 1.422124,1.613588 c 1.709647,1.347853 3.390415,2.140488 5.036007,2.25698 5.950127,0.421324 7.862295,-6.634993 6.359974,-11.300995 -0.891539,-2.768997 -2.877279,-5.304542 -5.351382,-7.735958 -0.426782,-0.419971 -0.238957,-0.703294 0.268535,-0.415259 4.007775,2.275082 6.696389,4.974752 7.913239,8.164466 2.273122,5.958618 -0.358201,11.799343 -5.290872,13.849417 -3.940595,1.637708 -8.138481,0.721396 -10.750724,-2.473496 -0.197622,0.148916 -0.475347,0.194263 -0.721442,0.06569 l -2.773662,3.240426 c -0.480853,0.105482 -0.711366,-0.108282 -1.138427,0.154421 -0.382415,0.235318 -0.285983,0.471196 -0.59422,0.755173 -0.375137,0.345559 -0.959606,0.321532 -1.305118,-0.0536 -0.345559,-0.375091 -0.32158,-0.95956 0.05356,-1.305119 z"
     id="_152520528"
     style="fill:#ffffbb;fill-rule:nonzero" /><path
     d="m 41.707841,52.4231 c 1.709646,1.347853 3.390415,2.140488 5.036007,2.25698 5.950127,0.421324 7.862294,-6.634993 6.359974,-11.300995 -0.89154,-2.768997 -2.877279,-5.304542 -5.351382,-7.735958 -0.426782,-0.419971 -0.238957,-0.703294 0.268535,-0.415259 4.007774,2.275082 6.67978,4.980957 7.913239,8.164466 2.714646,7.006585 -1.716738,14.737878 -9.445651,14.30839 -2.323134,-0.129042 -4.434044,-1.407755 -6.263309,-3.685076 L 41.707841,52.4231 z"
     id="_151812120"
     style="fill:#ffd42a;fill-opacity:1" /><path
     d="m 39.169916,54.836461 c -0.678615,1.053006 -1.259118,2.149212 -2.008646,2.83963 -0.67129,0.618339 -1.717064,0.575418 -2.33545,-0.09596 l 3.669633,-3.414209 0.464245,0.50404 c 0.06657,0.07227 0.137439,0.126943 0.210218,0.166504 z"
     id="_49378552"
     style="fill:#d4aa00;fill-opacity:1" /><path
     d="m 41.594902,52.719446 0.172677,-0.212286 c 1.356717,1.238498 3.152812,2.174918 4.999898,2.305639 5.950081,0.421324 7.862295,-6.634993 6.359974,-11.300995 -0.891539,-2.768997 -2.877279,-5.304542 -5.351382,-7.735958 2.642148,2.036964 4.735793,4.781128 5.668341,7.677721 0.420623,1.306565 0.585635,2.704443 0.482298,4.16389 -0.290041,4.095482 -2.70312,7.809885 -7.192028,7.492224 -1.956907,-0.138466 -3.698199,-1.079519 -5.139778,-2.390235 z m 6.130712,-16.863255 c -0.502219,-0.326151 -0.238956,-0.703294 0.268535,-0.415258 4.007775,2.275081 6.742482,4.95749 7.91324,8.164466 2.507366,6.868258 -1.911561,14.387186 -9.445652,14.087627 -2.324767,-0.09247 -4.339431,-1.281652 -6.168696,-3.558973 l 0.289342,-0.303851 c 1.454222,1.838503 3.543624,3.097481 5.922042,3.279288 7.158673,0.547193 11.225791,-7.243255 8.773054,-13.391051 -1.556204,-3.900566 -4.529168,-5.899602 -7.551865,-7.862248 z m -7.587648,18.27581 -1.57034,-1.705168 1.71963,-1.355271 1.342674,1.457441 z"
     id="path6050"
     style="fill:#d4aa00;fill-opacity:1;fill-rule:nonzero" /><path
     d="m 40.136567,53.870277 -1.570341,-1.704701 1.71963,-1.355737 1.342675,1.45744 z"
     id="_152180800"
     style="fill:#ffd42a;fill-opacity:1" /><path
     d="m 41.571506,52.586867 0.172677,-0.212286 c 1.356717,1.238498 3.152812,2.174918 4.999898,2.305639 5.950081,0.421324 7.862295,-6.634993 6.359974,-11.300995 -0.891539,-2.768997 -2.877279,-5.304542 -5.351382,-7.735958 2.642148,2.036964 4.735793,4.781128 5.668341,7.677721 0.420623,1.306565 0.585635,2.704443 0.482298,4.16389 -0.290041,4.095482 -2.70312,7.809885 -7.192028,7.492224 -1.956907,-0.138466 -3.698199,-1.079519 -5.139778,-2.390235 z m -3.005233,-0.421525 1.719677,-1.35569 1.342674,1.457674 -0.180422,0.196843 -0.815728,-0.884494 -1.452201,1.252246 z m 9.1864,-16.522075 c -0.50222,-0.326151 -0.238957,-0.703294 0.268535,-0.415259 4.007775,2.275082 6.742482,4.957491 7.913239,8.164466 2.507367,6.868259 -1.911561,14.387187 -9.445651,14.087628 -2.324767,-0.09247 -4.339431,-1.281652 -6.168696,-3.558973 l 0.289342,-0.303851 c 1.454221,1.838502 3.543624,3.097481 5.922042,3.279288 7.158673,0.547193 11.22579,-7.243256 8.773054,-13.391051 -1.556205,-3.900567 -4.529169,-5.899602 -7.551865,-7.862248 z"
     id="_151835400"
     style="fill:#ffffbb;fill-rule:nonzero" /><path
     d="m 38.976773,53.132693 0.894525,0.971129 c 0.505439,0.548686 -0.28519,1.27694 -0.790582,0.728254 L 38.186144,53.8609 c -0.505392,-0.548686 0.28519,-1.276893 0.790629,-0.728207 z"
     id="_151835880"
     style="fill:#d4aa00;fill-opacity:1" /><path
     d="m 33.607009,57.835318 c 0.372665,-0.343367 0.972016,-0.122418 1.059677,0.352977 -0.159367,-0.167625 -0.424356,-0.177002 -0.595059,-0.01978 -0.257945,0.23765 -0.122931,0.664012 0.205133,0.728487 -0.23891,0.09568 -0.52214,0.04049 -0.706746,-0.159927 -0.238771,-0.259157 -0.222255,-0.663033 0.03699,-0.901756 z m 1.218951,-0.255239 c -1.444378,-1.568195 2.498456,-3.095895 3.414208,-3.691514 l 0.517849,0.562216 c -0.656595,0.863314 -2.518844,4.663669 -3.932057,3.129298 z m 5.188423,-3.229929 c -0.101751,0.357969 -0.585216,0.586335 -0.933481,0.208259 L 38.18633,53.587233 c -0.07352,-0.07982 -0.119431,-0.163565 -0.142944,-0.246514 0.101796,-0.357969 0.585262,-0.586056 0.933527,-0.20798 l 0.894525,0.97113 c 0.07353,0.07982 0.119385,0.163379 0.142945,0.246281 z"
     id="_151753616"
     style="fill:#ffd42a;fill-opacity:1" /></g>
</svg>